<?xml version="1.0" encoding="utf-8"?>
<!-- Generator: Adobe Illustrator 17.1.0, SVG Export Plug-In . SVG Version: 6.00 Build 0)  -->
<!DOCTYPE svg PUBLIC "-//W3C//DTD SVG 1.1//EN" "http://www.w3.org/Graphics/SVG/1.1/DTD/svg11.dtd">
<svg version="1.1" id="Calque_1" xmlns="http://www.w3.org/2000/svg" xmlns:xlink="http://www.w3.org/1999/xlink" x="0px" y="0px"
	 viewBox="0 0 512 512" enable-background="new 0 0 512 512" xml:space="preserve">
<g>
	<path d="M230.9,173.3c0,0,19.1,3.3,35.9,9.7C263,172.9,246.4,165.9,230.9,173.3z"/>
	<path d="M264.8,189.3c-16.5-2.1-37-9.5-37-9.5C232.3,195.1,257.1,196.9,264.8,189.3z"/>
	<path d="M436.6,349.8c0-0.1-0.1-0.1-0.1-0.2c-0.9-1.5-1.9-3-3.2-4.8c-5.6-7.6-49.7-65.1-62-81c0.4-0.2,0.8-0.5,1-0.9
		c0.5-0.8,0.4-1.9-0.2-2.6c-33.3-40.6-89.6-96.2-95.8-102.3c0,0,0,0,0,0c-0.4-2.3-1.7-8.9-4.8-13.3c-0.5-0.7-53.2-68.8-108.7-66.4
		c-7.3-1.9-23.5-2-37.7,3.8c-10,4.1-21.8,11.4-30.7,21.3c-0.1,0.1-0.2,0.1-0.3,0.2c-0.1,0.1-0.1,0.2-0.2,0.3
		c-3.8,4.3-7.1,9-9.5,14.2c-7.2,15.9-10.6,34.7-10.5,42.3c-1.7,1-3,2.9-3.4,4.7c-0.4,1.9,0.7,3.5,1.8,4.5c-0.7,1.6-1.6,4-2,6.2
		c-0.5,2.6,0.2,4.4,1.2,5.6c-0.5,1.8-1.2,5-1.5,7.4c-0.3,2.8,0.5,4.5,1.3,5.6c-0.4,2.9-1.4,10.4-1.6,12.1c-0.2,1.3,0.2,2.6,1,3.6
		c0.7,0.9,1.7,1.5,2.7,1.8c2.1,31.2,7,47.7,8.1,49.2c0.2,0.2,0.6,0.8,2.3,1.7c0.5,6.9,1.2,11,2,12.3c0.4,0.7,1.1,1.1,1.9,1.1
		c9.8,0,10.6-0.6,11.1-1c0.8-0.6,1.3-1,2.1-9.7c2.1,0.1,4.8,0.2,5.9,0c0.6-0.1,1.1-0.4,1.5-0.9c1.9-2.6,4.6-43,5-49.5
		c1.2-1.6,1.1-4.4,0.2-14.3c0.4-0.2,0.9-0.5,1.3-1c1.3-1.5,1.9-4.2,1.2-12.8c0.5-0.5,0.9-1.2,1.2-2.1c-0.5,8.2-1.1,17.5-1.1,18.5
		c0,1.3,0.6,2.6,1.7,3.6c0,0,0.1,0.1,0.1,0.1c-0.2,5.1-1.1,23.9-0.6,30.7c0.4,6.5,0.8,11.5,3.5,14.3c0.7,10.7,1.4,11.9,1.8,12.4
		c1,1.6,2.3,1.9,3.6,1.9c0.7,0,1.4-0.1,2-0.2c2-0.3,3.8-0.5,5.2-0.5c0,0,0,0.1,0,0.1c-3.9,7.1-8,14.8-9.9,19.2
		c-4.4,10-3.6,15-2.1,20.8c1.4,5.4,29.5,96.2,29.5,96.2s-23.7-92-25.1-97.4c-1.2-4.6-2.2-8.5,1.9-17.9c3.2-7.4,13-24.8,17-32.1
		l10.9,16.3c-2.4,4.5-10.8,19.9-12.9,23.5c-2.7,4.7-5.2,10.6-3.4,18.8c1.6,7.5,25.4,90.8,25.4,90.8c-0.2-0.8-19.4-84.3-20.9-91.7
		c-1.4-6.7,0.6-11.4,2.9-15.6c2.4-4.2,13.6-24.8,13.6-24.8c0.4-0.7,0.4-1.7-0.1-2.4l-11.9-17.8l2.6-0.6l13.7,20.6
		c-3,5.2-14.4,25.2-16.3,29.3c-2.3,4.9-2.7,8.6-2.2,11.3l19.8,75.7c-0.1-0.6-14-62.7-15-68.9c-1-6.2-0.5-12.2,1.4-16.2
		c1.9-3.9,13.3-23.9,16.2-29l36.4,161.2l-34.5-169.5l9.3-2.5l0.2-1.5c0.1-0.5,1.2-11.3-1.1-21.3c0.8,0.4,1.5,0.8,2.4,1.2
		c1.4,0.7,2.9,1.4,4.5,2.2c0.1,0.1,0.3,0.2,0.7,0.5c2.9,14,0.3,19.6-2.2,24.9c-0.6,1.3-1.2,2.5-1.7,3.8c-2.9,7.5-4,12.8-2.7,18.2
		c8,34,33.4,136.2,33.4,136.2c-0.1-0.7-21.6-94.2-21.6-94.2c-11.5-46.3-7.2-52.5-4.9-58.5c0.5-1.2,1-2.3,1.6-3.5
		c2.4-5.1,5.1-10.8,3.5-22.9c31.4,23.5,172.7,129.2,177.2,132.5c5.5,4,9.3,4.9,17.4,5.5c7.2,0.5,40.7,2.5,43.9,2.5
		c2.1,0,6.6,0,7.6-5.3c0.5-3,2.2-18.2,2.3-21C440.3,359.1,439.8,355.4,436.6,349.8z M379.1,380.4c-0.6-0.1-1.1-0.3-1.7-0.5
		c1.4-0.5,2.7-1.1,3.8-2.2l0.6-0.6c11.1-10.6,20.1-17.9,27-21.7c10.8-5.9,20.1-6,23.9-3.1c1.7,3,2.5,5.4,2.7,7.5
		c-2.3-1.3-5.1-2.4-7.3-2.4c-11.8,0-22.6,4.9-32.2,14.7C389.1,379.2,380.6,380.3,379.1,380.4z M205.6,252.6
		c4.1,1.9,8.4,3.8,12.6,5.6c12.5,5.6,25.5,11.3,34.8,15.9c11.5,5.6,22.9,10.4,34.4,10.4c6.8,0,13.6-1.7,20.4-5.9
		c16.8-10.2,32.8-18.5,57.2-15.4c5.7,7.4,54.1,70.4,63.5,83c-6.1-0.8-14,1-21.9,5.3c-10.8,5.9-23.7,18.3-28,22.4l-0.6,0.6
		c-1.7,1.6-5.2,1.9-7,1.9C362,369.6,249.4,285.3,205.6,252.6z M146.5,205.7c-7.5-1.8-18.2-2.1-21.9-1.7c-3,0.3-3.9-0.8-4-0.9
		c0-1.1,1-17,1.7-28.5c1.4-0.3,2.7-0.6,3.7-0.8c1,1.2,2.8,2.3,5.5,2.3c1.7,0,3-0.2,4.1-0.5c3.7,12,6.9,22.3,7.8,25
		c0.3,0.9,1.1,1.5,2,1.5c0.3,0,0.7,0,1.2,0C146.5,203.2,146.5,204.4,146.5,205.7z M113.1,182.9c-3.5-1.1-12.6-2.6-38.1-4.7
		c-0.2-0.2-0.4-0.7-0.2-1.6c0.4-1.9,1.2-3.9,1.8-5.3l20.6,2.7c6,2.8,12,2.9,12.4,2.9c0.7,0,2.3-0.2,4.1-0.5
		C113.6,180.4,113.3,182.2,113.1,182.9z M76,207.6C76,207.6,76,207.6,76,207.6c-0.1,0-0.2,0-0.2,0c-0.6,0-1.2-0.3-1.5-0.8
		c0.2-1.5,1-7.7,1.4-11c5.8,0.4,22.5,1.8,33.1,4.7c0.4,4.3,0.9,9.6,0.8,11.1C103,211.9,83.4,208.9,76,207.6z M84.9,160.9l-6.4-0.9
		c0-3.8,1.1-11.5,3.3-20.3c-0.1,0.6-0.2,1.2-0.2,1.8C81,148.3,82.2,155,84.9,160.9z M111.9,117.8c0.5,0,1,0.1,1.5,0.2
		c1.3,3.7,4.8,14.7,4.4,25.6c-0.4,11.3-5.3,24.6-6.9,28.5c-0.6,0.1-1.2,0.2-1.5,0.2c-0.1,0-3.7-0.1-7.9-1.5
		c4.3-1.5,7.5-5.2,9.9-11.4c3.7-9.6,4.4-18.2,2.3-27.9c-1.5-7-5-10.8-8-12.9C107.9,117.9,110,117.6,111.9,117.8z M126,109.9
		c-0.9,1.4-1.8,3.1-2.6,5c-0.3-0.1-0.7-0.1-1-0.2l-10.5-20.2c4.2-2.8,8.3-5.1,12.2-6.9L126,109.9z M76,166.6c-0.5-0.3-0.9-0.6-1-0.5
		c0.2-0.9,0.9-1.7,1.3-1.7l11.5,1.6c0.4,0.6,0.8,1.2,1.3,1.8c0.2,0.2,0.4,0.4,0.6,0.7L76,166.6z M100,120.7
		c1.8,0.5,7.5,2.9,9.4,11.7c1.9,8.8,1.2,16.6-2.1,25.3c-3.3,8.6-7.2,9.9-12.9,8.9c-0.6-0.6-1.2-1.1-1.8-1.8
		c-4.9-6.3-7.2-14.5-6.5-23c0.7-7.9,4.9-15.7,8.4-18.1C96.1,122.7,98,121.6,100,120.7z M111.4,187.1c0.6,7.7,0,9.3-0.1,9.3
		c0,0,0,0,0,0c-11.9-3.5-31.9-4.9-36.4-5.2c-0.2-0.3-0.4-0.9-0.2-2c0.2-1.9,0.8-4.6,1.3-6.3C91,184.1,107.2,185.9,111.4,187.1z
		 M131.6,171.6c-1.7,0-2.1-0.7-2.1-0.9c-0.2-0.8-0.8-1.4-1.5-1.6c0.7-2.6,1.6-6.5,2.2-11.5c1.4,4.5,2.8,9.1,4.2,13.6
		C133.6,171.5,132.8,171.6,131.6,171.6z M123,169.8c-2.2,0.5-4.6,1-6.8,1.4c2.1-5.8,5.8-17.2,6.2-27.4c0.4-10.1-2.3-20-3.9-25.1
		c1.3,0.2,2.5,0.4,3.4,0.6c-0.8,3.4-1,7.2,0.2,11.4c0.7,2.5,2.3,7.9,4.3,14.6C126.4,157.3,124,166.7,123,169.8z M130.1,103.9
		l-1.6-18.2c7.5-2.8,15.4-4,21.9-4.1c-2.2,1-3.9,2.3-5.9,4.4C141.2,89.4,134.1,98.5,130.1,103.9z M108.1,97.2l8.6,16.5
		c-1.4-0.2-2.9-0.4-4.4-0.5c-1.4-0.1-2.9,0-4.3,0.2l-8.9-8.3C101.9,102.2,104.9,99.5,108.1,97.2z M96,108.4l6.6,6.2
		c-5.3,1.8-9.6,4.6-10.7,5.4c-2.7,1.8-5.1,5.3-7,9.4c1.1-3.2,2.3-6.4,3.7-9.5C90.5,115.8,93.1,112,96,108.4z M89.5,271.3
		c-0.3-1.6-0.6-4.5-0.9-7.4c1.8,0.3,4.5,0.7,7.8,1c-0.2,2.4-0.5,4.8-0.7,6.1C94.1,271.2,91.5,271.3,89.5,271.3z M104.7,260.8
		c-1.5,0-3.8-0.1-5.8-0.2h0c-6.6-0.5-11.1-1.4-12.1-1.6c-0.6-0.3-1.2-0.6-1.5-0.8c-1.1-2.9-5.1-17.9-7.1-45.5
		c6.7,1.1,22.5,3.5,30.4,3.5c0,0,0,0,0,0C107.9,226.3,105.7,254.9,104.7,260.8z M125,208.6c3.7-0.3,14.7,0.1,21.4,1.8l-2.8,13.9
		c0,0.1,0,0.1,0,0.2c-3,2.1-4.3,8.9-4.6,11.3c-0.3,2.2-0.3,4.3-0.2,6.1c-1,1.5-3.7,5.6-4.2,9.4c0,0.2-0.1,0.5-0.1,0.7
		c-3.1-0.8-7.7-2-9.7-2.9c-2.2-1-2.6-5-3.1-12c-0.4-6,0.2-22.1,0.5-28.6C123.2,208.6,124.1,208.6,125,208.6z M145,230.3
		c0.2,1.5,0.2,3.6-0.2,6.3v0c-0.3,2.6-0.9,4.7-1.4,6.1c-0.2-1.5-0.2-3.6,0.2-6.3C144,233.8,144.5,231.7,145,230.3z M139.2,252
		c0.2-1.3,0.8-2.7,1.4-4c0.5,0.6,1.1,1,1.9,1.1c-0.4,0.6-1.8,3.1-3.7,6.6C139,254.3,139.1,253,139.2,252z M127.5,261.3
		c-0.3,0-0.8,0.1-1.1,0.2c-0.3-1.1-0.6-4-0.8-7.1c2.9,1,6.5,1.9,8.6,2.4c-0.1,1.4-0.2,2.7-0.3,4
		C131.5,260.7,128.8,261.1,127.5,261.3z M153.9,247c-0.5-0.8-1.5-1.2-2.4-1l-5.3,1.3c2.1-2.8,3-8.1,3.3-10.1v0
		c0.4-3,0.4-5.8,0.1-8.1c-0.2-1.7-0.7-3-1.4-3.9c0,0,0,0,0,0l1.6-8.2c1.7,2.6,4.5,5.7,8.1,8.9l9.2,41L153.9,247z M175.7,259.3
		l-6,1.6l-6.2-30.4c2.9,2.1,6.1,4.3,9.7,6.4C176.3,244.8,175.9,255.4,175.7,259.3z M152.7,213.1c-1.8-3.5-1.7-8.3-1.6-10.9
		c4.3-0.1,9.2-0.4,10-0.4l-13.9-4.1c-3.5-10.8-18.2-58.8-20.8-68.2c-2.4-8.7,2.1-15.4,4.8-19.4l0.3-0.5c2.7-4,12.3-16.4,16.1-20.3
		c3.4-3.5,5.6-4.3,15.1-6.4c52.2-2.5,104.5,63.8,105,64.5c1.9,2.6,3,6.5,3.6,9.1l-1.1-0.1l-4.1-0.4l-8.2-0.9
		c-5.5-0.7-10.9-1.6-16.3-2.7c-10.8-2.2-21.2-5.9-31.3-10.5c-10.1-4.5-20-9.7-30-14.5c-10.1-4.8-20.8-8.1-31.6-11
		c10.6,3.2,21.2,6.9,31,12c9.8,5.1,19.5,10.7,29.6,15.6c10,4.9,20.5,9.2,31.5,11.8c5.5,1.4,11,2.4,16.5,3.4c2.8,0.4,5.5,0.8,8.3,1.2
		l7.4,0.9c5.4,5.3,58.1,57.2,91.7,97.4c-25.4-3-42.6,5.9-59.3,16.1c-15.1,9.2-29.4,5.4-50.5-4.8c-9.4-4.6-22.4-10.3-35-15.9
		c-13.5-6-27.4-12.2-36.7-16.8C164,227.7,154.8,217.3,152.7,213.1z M430.4,384c-2.7,0-28.6-1.6-39.9-2.3c2.9-1.4,5.9-3.4,8.8-6.3
		c8.7-8.8,18.4-13.3,29-13.3c2.3,0,6.3,2.3,7.2,3.4c-0.5,5.3-1.6,14.6-2,16.9C433.3,383.6,433.2,384,430.4,384z"/>
</g>
</svg>
