<?xml version="1.0" encoding="utf-8"?>
<!-- Generator: Adobe Illustrator 17.1.0, SVG Export Plug-In . SVG Version: 6.00 Build 0)  -->
<!DOCTYPE svg PUBLIC "-//W3C//DTD SVG 1.1//EN" "http://www.w3.org/Graphics/SVG/1.1/DTD/svg11.dtd">
<svg version="1.1" id="Calque_1" xmlns="http://www.w3.org/2000/svg" xmlns:xlink="http://www.w3.org/1999/xlink" x="0px" y="0px"
	 viewBox="0 0 512 512" enable-background="new 0 0 512 512" xml:space="preserve">
<g id="_x30_10---Lazer-Pistol" transform="translate(0 -1)">
	<path id="Shape" d="M132.7,309.2c7.9,0,12.1-3.2,22.4-8.9c2,4.1,6.1,6.8,10.7,6.8c4.3,0,6.8-2.1,16-7l-8.3,108.5
		c-0.5,6.7,2.7,13.1,8.3,16.8c5.6,3.6,12.8,3.9,18.7,0.7l61-33.3c6.1-3.3,9.8-9.8,9.5-16.7l-1.9-52l49.8-26.9
		c15.7-8.6,25.5-24.9,25.8-42.8l50.8-27.8c0.9,2,2.8,3.3,4.9,3.5s4.2-1,5.3-2.9s1-4.2-0.2-6l18-9.9c5.7-3.1,9.4-9.1,9.5-15.6
		c0.2-6.5-3.2-12.6-8.8-16s-12.5-3.6-18.3-0.4l-18,9.4c-1-1.8-2.9-2.9-5-2.9c-2.1,0-4,1.1-5,2.9c-1,1.8-1.1,4,0,5.8l-35.9,19.6
		l-1-13.9c0.8-3,1.3-6,1.5-9.1l20.2-11c1,1.8,2.9,2.9,5,2.9c2.1,0,4-1.1,5-2.9c1-1.8,1.1-4,0-5.8l12-6.6c1,1.8,2.9,2.9,5,2.9
		c2.1,0,4-1.1,5-2.9c1-1.8,1.1-4,0-5.8l15.9-8.7l16.6-0.6c4.2-0.1,8-2.4,10-6.1c2.1-3.6,2.1-8.1,0.1-11.7L414.3,92
		c-2-3.7-5.7-6-9.9-6.3c-4.2-0.2-8.1,1.7-10.5,5.1l-9.5,13.9l-15.9,8.7c-0.7-2.2-2.7-3.7-5-3.8s-4.4,1-5.5,3.1
		c-1.1,2-0.8,4.5,0.6,6.2l-12.3,6.9c-1.6-2.8-5.1-3.7-7.9-2.1c-2.8,1.6-3.7,5.1-2.1,7.9l-17.1,9.3c-9.1-6.5-20-10.1-31.2-10.3
		c-54.6-33.3-141,8.1-157,69.5c-1.9,1-4.3,2.3-7.4,4.1c-3.9,1.9-6.4,6-6.4,10.4c0.1,4.4,2.6,8.4,6.6,10.2c2.4,1.2,4.8,2.5,7.1,4
		l-22.2,12.2c-5.7,3.1-10,8.4-11.8,14.6c-1.8,6.3-1.1,13,2,18.7l12,22.1C115.4,304.3,123.7,309.2,132.7,309.2L132.7,309.2z
		 M256.3,382.7l-61.2,33.4c-2.2,1.2-4.9,1.1-7-0.3c-2.1-1.4-3.3-3.8-3.1-6.3l8.9-116l62.1-33.7l4.2,116.6
		C260.2,379.1,258.7,381.6,256.3,382.7z M288.2,242.1c6.5-0.2,13-1.5,19.1-3.8l1.1,13.9c0.4,5.2-2.3,10.1-6.9,12.6l-33.6,18.3
		l-1.1-29.4L288.2,242.1z M313.6,286.9L269,311.3l-0.6-15.4l38.9-21.2c8.4-4.7,13.2-13.8,12.4-23.4l-1.5-18.7
		c5-3.3,9.4-7.5,13.1-12.2l2.2,29.7C334.6,265.3,326.8,279.6,313.6,286.9L313.6,286.9z M411.7,189c3.3-1.4,7.1-0.1,8.9,3
		c1.7,3.2,0.7,7.1-2.3,9.1l-18,9.8l-6.6-12L411.7,189z M383.6,204.3l6.6,12.1l-45.7,25.1l-1.1-15.1L383.6,204.3z M403.3,97.7h1
		l23.4,42.9c0.1,0.2,0.1,0.4,0,0.6c-0.1,0.2-0.3,0.3-0.5,0.3l-14.4,0.5L395,109.4L403.3,97.7z M386.1,116.9l15.6,28.5l-12.1,6.6
		L374,123.5L386.1,116.9z M364,128.9l15.6,28.5l-12.1,6.6l-15.6-28.5L364,128.9z M357.5,169.7l-15.2,8.3c-1.6-11-6.5-21.2-14-29.3
		l13.5-7.4L357.5,169.7z M326.1,164.6c9.7,17.7,6.2,39.8-8.4,53.7c-14.6,13.9-36.8,16.3-54,5.8s-25.3-31.3-19.6-50.7
		c5-17.4,20.1-30,38.1-31.9C300.1,139.6,317.4,148.7,326.1,164.6L326.1,164.6z M233.6,168.7c-16.7,12.1-35.2,21.5-54.9,27.6
		c-2.4,0.7-4.8,1.1-7.3,1.1c14.7-24.3,40.2-39.9,68.5-42.1C237.2,159.5,235.1,164,233.6,168.7L233.6,168.7z M267.9,133.4
		c-6.6,2.4-12.7,6-18,10.7c-36.7-2.9-77.1,21.4-91.1,53.2c-5.7-0.3-10.7-0.7-14.6-0.7c16.6-45.9,77.4-77.3,123.6-63.1H267.9z
		 M141.2,208c4.5-1.2,29.7,3.3,41.3-1c17.1-5.4,33.3-13.1,48.3-22.8c-0.9,24.9,14.9,47.3,38.7,54.9
		c-110.7,60.8-103.3,57.1-104.2,56.1c0.7-24.3-6.2-48.2-19.6-68.5c-4.6-5.3-10.3-9.5-16.7-12.2C132.9,211.9,137,209.8,141.2,208
		L141.2,208z M114.3,251l24.8-13.5c9.1,15.4,14.2,32.8,14.8,50.6l-14.8,8.1c-6.4,3.5-14.4,1.1-17.9-5.3l-12-22.1
		c-1.7-3.1-2.1-6.7-1.1-10C108.9,255.5,111.2,252.6,114.3,251L114.3,251z"/>
	<path id="Shape_1_" d="M259.8,200.9c6.7,12.2,20.8,18.4,34.3,15.1c13.5-3.3,23.2-15.2,23.6-29.1c0.4-13.9-8.5-26.4-21.8-30.5
		c-12-3.6-25.1,0.4-33,10.1C255,176.3,253.7,189.9,259.8,200.9L259.8,200.9z M292.4,167.4c8.4,2.6,13.9,10.5,13.6,19.2
		c-0.3,8.7-6.4,16.2-14.9,18.3c-8.5,2.1-17.3-1.8-21.6-9.5c-3.9-7-3.1-15.6,1.9-21.8C276.5,167.5,284.8,165,292.4,167.4L292.4,167.4
		z"/>
	<path id="Shape_2_" d="M231,303.3l-21.1,11.4c-2.5,1.4-4.2,4-4.5,6.9l-4.6,60.6c-0.2,2.4,0.6,4.7,2.2,6.5c1.6,1.8,3.9,2.8,6.3,2.8
		c3,0,1.1,0.6,32-16.3c2.9-1.5,4.6-4.6,4.5-7.8l-2.1-57.1c-0.2-2.9-1.9-5.5-4.4-6.9C236.7,301.8,233.6,301.9,231,303.3L231,303.3z
		 M212.6,377.9l4.2-53.8l15.7-8.6l1.8,50.5L212.6,377.9z"/>
	<path id="Shape_3_" d="M173.4,246.6c2.1,0-1.5,1.6,52.4-27.8c2.8-1.5,3.8-5,2.3-7.7c-1.5-2.8-5-3.8-7.7-2.3l-49.7,27.2
		c-2.2,1.3-3.4,3.9-2.7,6.4C168.6,244.8,170.8,246.5,173.4,246.6L173.4,246.6z"/>
	<path id="Shape_4_" d="M180.4,265.7c0.7,1.3,2,2.3,3.4,2.8c1.5,0.4,3,0.3,4.4-0.5l49.7-27.1c1.3-0.7,2.3-2,2.8-3.4
		c0.4-1.5,0.3-3-0.5-4.4c-0.7-1.3-2-2.3-3.4-2.8c-1.5-0.4-3-0.3-4.4,0.5L182.7,258C179.9,259.5,178.9,262.9,180.4,265.7L180.4,265.7
		z"/>
</g>
</svg>
