<?xml version="1.0" encoding="utf-8"?>
<!-- Generator: Adobe Illustrator 17.1.0, SVG Export Plug-In . SVG Version: 6.00 Build 0)  -->
<!DOCTYPE svg PUBLIC "-//W3C//DTD SVG 1.1//EN" "http://www.w3.org/Graphics/SVG/1.1/DTD/svg11.dtd">
<svg version="1.1" id="Calque_1" xmlns="http://www.w3.org/2000/svg" xmlns:xlink="http://www.w3.org/1999/xlink" x="0px" y="0px"
	 viewBox="0 0 3000 4000" enable-background="new 0 0 3000 4000" xml:space="preserve">
<g>
	<path d="M2343.8,1953.1c-77.5,0-140.6,63.1-140.6,140.6s63.1,140.6,140.6,140.6s140.6-63.1,140.6-140.6
		S2421.3,1953.1,2343.8,1953.1z M2343.8,2140.6c-25.9,0-46.9-21-46.9-46.9s21-46.9,46.9-46.9s46.9,21,46.9,46.9
		S2369.6,2140.6,2343.8,2140.6z"/>
	<path d="M656.2,1953.1c-77.5,0-140.6,63.1-140.6,140.6s63.1,140.6,140.6,140.6s140.6-63.1,140.6-140.6S733.8,1953.1,656.2,1953.1z
		 M656.2,2140.6c-25.9,0-46.9-21-46.9-46.9s21-46.9,46.9-46.9s46.9,21,46.9,46.9S682.1,2140.6,656.2,2140.6z"/>
	<path d="M2859.4,1953.1v-468.8c0-180.9-147.2-328.1-328.1-328.1h-304.5c-56.8,0-111.7,20.6-154.3,58l-9.9,8.7v-207.3h-46.9
		c-133.2,0-251.2,79.9-300.7,203.5l-106.1,265.2h-318.2l-93.8-140.6h-5.7l421.9-421.9l-93.8-93.8H1500
		c-193.9,0-376.2,75.5-513.2,212.6l-303,303h-65c-166.5,0-317.9,98.3-385.5,250.5l-12.4,27.8c-46.7,105.4-72,216.7-77.7,331h-2.4
		c-51.7,0-93.8,42-93.8,93.8v93.8c0,51.7,42,93.8,93.8,93.8h219.6c52.8,110.7,165.5,187.5,296,187.5s243.2-76.8,296-187.5h1095.5
		c52.8,110.7,165.5,187.5,296,187.5s243.2-76.8,296-187.5h219.6c51.7,0,93.8-42,93.8-93.8v-93.8
		C2953.1,1995.2,2911.1,1953.1,2859.4,1953.1z M2639.8,1953.1c-52.8-110.7-165.5-187.5-296-187.5s-243.2,76.8-296,187.5h-320.9
		c21.6-37.5,39.9-76.8,54.8-117.4c127.3-40.9,245.6-129.9,370.3-224.7c161.8-122.9,329.3-249.1,541.3-295.4
		c22.6,21.7,41.1,47.6,53.6,76.9c-94.5,9.7-168.7,88.7-168.7,185.6v93.8c0,103.4,84.1,187.5,187.5,187.5v93.8H2639.8z
		 M2765.6,1765.6c-51.7,0-93.8-42-93.8-93.8v-93.8c0-51.7,42-93.8,93.8-93.8V1765.6z M2134.1,1284.8c25.6-22.4,58.5-34.8,92.6-34.8
		h304.5c12.8,0,25.3,1.8,37.5,3.8c-184,64-336.6,178.5-473.6,282.6c-96.9,73.6-189.7,143.7-282,186.6c9.5-47.7,14.9-96.1,14.9-144.8
		v-25.6L2134.1,1284.8z M1802,1254c29.2-73,92-124.5,166.7-139.9v190.8l-205.1,179.5h-53.8L1802,1254z M1734.4,1578.1
		c0,133.5-42.1,265.5-118.3,375H999.7l1.6-5.6c44.1-154.1,142.9-284.6,278.4-369.4H1734.4z M1053,1107
		c114.7-114.7,265.8-179.9,427.2-184.8l-421.5,421.5H816.3L1053,1107z M555.6,1444.4c4.2,13.2,6.9,26.5,6.9,40
		c0,77.5-63.1,140.6-140.6,140.6c-30.3,0-59.6-10.2-83.8-28.5C386,1517,465.2,1462.2,555.6,1444.4z M298,1682.4
		c36.9,23.4,79.7,36.4,123.9,36.4c129.2,0,234.4-105.1,234.4-234.4c0-15.8-2.1-31.5-5.4-46.9h495.9l53.9,80.8
		c-133.2,92.4-231.6,225-281.6,379.9c-59.9-80.2-155.2-132.5-262.8-132.5c-130.5,0-243.2,76.8-296,187.5H236.8
		C242,1859.8,262.3,1769.1,298,1682.4z M140.6,2140.6v-93.8h191.2c-2.2,15.4-3.8,30.9-3.8,46.9s1.5,31.5,3.8,46.9H140.6z
		 M656.2,2328.1c-129.2,0-234.4-105.1-234.4-234.4s105.1-234.4,234.4-234.4s234.4,105.1,234.4,234.4S785.5,2328.1,656.2,2328.1z
		 M980.6,2140.6c2.2-15.4,3.8-30.9,3.8-46.9s-1.5-31.5-3.8-46.9h1038.8c-2.2,15.4-3.8,30.9-3.8,46.9s1.5,31.5,3.8,46.9H980.6z
		 M2343.8,2328.1c-129.2,0-234.4-105.1-234.4-234.4s105.1-234.4,234.4-234.4s234.4,105.1,234.4,234.4S2473,2328.1,2343.8,2328.1z
		 M2859.4,2140.6h-191.2c2.2-15.4,3.8-30.9,3.8-46.9s-1.5-31.5-3.8-46.9h191.2V2140.6z"/>
	<rect x="1453.1" y="1671.9" width="187.5" height="93.8"/>
</g>
</svg>
