<?xml version="1.0" encoding="utf-8"?>
<!-- Generator: Adobe Illustrator 17.1.0, SVG Export Plug-In . SVG Version: 6.00 Build 0)  -->
<!DOCTYPE svg PUBLIC "-//W3C//DTD SVG 1.1//EN" "http://www.w3.org/Graphics/SVG/1.1/DTD/svg11.dtd">
<svg version="1.1" id="Calque_1" xmlns="http://www.w3.org/2000/svg" xmlns:xlink="http://www.w3.org/1999/xlink" x="0px" y="0px"
	 viewBox="365.5 203.1 582.2 582.2" enable-background="new 365.5 203.1 582.2 582.2" xml:space="preserve">
<path d="M869.8,349.8c-5.3-12.3-16.8-21.2-30.1-23l-64.9-9c-1.5-8.3-8.8-14.7-17.6-14.7H542.7c-8.8,0-16,6.3-17.5,14.7l-64.9,9
	c-13.4,1.9-25,10.7-30.2,23c-10.4,24.4-8.3,52.6,5.5,75.2l24.2,39.6c15.8,25.8,42,44.1,71.9,50.1l54.9,11c24,17.6,38.3,46,38.3,76.4
	v16c0,13.7-30.7,33.7-45.5,43.4c-6.2,4.1-9,11.3-6.8,18.5c0.1,0.2,0.1,0.4,0.2,0.5h-7.6c-11.7,0-19.8,4.9-19.8,11.8V730
	c0,4.5,4.3,7.7,10.4,7.7h188.3c6.1,0,10.4-3.2,10.4-7.7v-37.8c0-7-8.1-11.8-19.8-11.8h-7.6c0.1-0.2,0.1-0.4,0.2-0.5
	c2.2-7.2-0.5-14.4-6.8-18.5c-14.8-9.6-45.4-29.7-45.4-43.4v-16c0-30.4,14.3-58.9,38.3-76.4l54.9-11c29.9-6,56-24.3,71.9-50.1
	l24.2-39.6C878.1,402.4,880.1,374.3,869.8,349.8z M774.9,418.8V353l59.8,8.3c1.2,0.2,2.3,1,2.8,2.1c6.1,14.2,4.8,30.5-3.2,43.6l0,0
	l-24.2,39.6c-10.8,17.6-28.5,30-48.9,34l-3.6,0.7C768.9,462.4,774.9,441.1,774.9,418.8z M542.3,481.4l-3.6-0.7
	c-20.3-4.1-38.1-16.5-48.9-34L465.6,407c-8.1-13.1-9.2-29.5-3.2-43.6c0.5-1.1,1.5-1.9,2.8-2.1L525,353v65.8
	C525,441.1,531,462.4,542.3,481.4z M469.5,458.7l-24.2-39.5c-12-19.6-13.8-43.9-4.8-65c3.7-8.7,11.9-14.9,21.4-16.2l63.1-8.8v12.3
	l-61.4,8.5c-5.2,0.7-9.6,4.1-11.6,8.9c-7.4,17.6-6,37.7,4,54l24.2,39.6c12.4,20.3,32.9,34.5,56.3,39.2l15.6,3.1l17.8,16l-35.9-7.2
	C507.2,498.3,483.6,481.9,469.5,458.7z M743.2,693.5v33H556.7v-33c1.2-0.6,4.1-1.7,8.5-1.7h169.5C739.1,691.8,742,692.9,743.2,693.5
	z M663.7,602.1v16c0,18.3,25,36,50.5,52.8c3,2,2.4,5,2.2,5.8c-0.3,0.9-1.4,3.7-5.1,3.7H588.6c-3.7,0-4.8-2.9-5.1-3.7
	c-0.3-0.9-0.9-3.8,2.2-5.8c25.5-16.7,50.5-34.6,50.5-52.8v-16c0-34.3-16.3-66.5-43.7-86.1l-33.6-30.2c-14.8-19.6-22.5-42.7-22.5-67
	v-72.3v-23.7v-2c0-3.5,2.9-6.3,6.4-6.3h214.4c3.5,0,6.4,2.8,6.4,6.3v2v23.7v72.3c0,24.3-7.8,47.4-22.5,67L707.4,516
	C680.1,535.7,663.7,567.8,663.7,602.1z M854.6,419.2l-24.2,39.6c-14.1,23.2-37.7,39.6-64.5,44.9l-35.9,7.2l17.8-16l15.6-3.2
	c23.4-4.7,43.9-19,56.3-39.2l24.2-39.6c10-16.3,11.4-36.4,4-54c-2-4.8-6.5-8.1-11.6-8.9l-61.5-8.5v-12.3L838,338
	c9.4,1.3,17.7,7.5,21.4,16.2C868.3,375.3,866.5,399.6,854.6,419.2z"/>
</svg>
