<?xml version="1.0" encoding="utf-8"?>
<!-- Generator: Adobe Illustrator 17.1.0, SVG Export Plug-In . SVG Version: 6.00 Build 0)  -->
<!DOCTYPE svg PUBLIC "-//W3C//DTD SVG 1.1//EN" "http://www.w3.org/Graphics/SVG/1.1/DTD/svg11.dtd">
<svg version="1.1" id="Calque_1" xmlns="http://www.w3.org/2000/svg" xmlns:xlink="http://www.w3.org/1999/xlink" x="0px" y="0px"
	 viewBox="0 0 3000 3119.1" enable-background="new 0 0 3000 3119.1" xml:space="preserve">
<g>
	<path d="M1933.2,817.6c-88.9-79.7-118.1-212-71-321.8c37.2-86.5,110.6-147.7,201.5-167.7c90.9-20.1,183.2,4.5,253.4,67.4
		c88.9,79.7,118.1,212,71,321.8c-37.2,86.6-110.6,147.7-201.5,167.7c-20.8,4.6-41.6,6.8-62.2,6.8
		C2054.7,891.8,1987.3,866.1,1933.2,817.6z M2070.2,357.4c-81.3,17.9-147.1,72.7-180.4,150.3c-42.1,98.1-16,216.3,63.4,287.6
		l-10,11.2l10-11.2c62.8,56.3,145.5,78.4,226.9,60.4c81.3-17.9,147.1-72.7,180.4-150.3c42.1-98.1,16-216.3-63.5-287.6
		c-48.5-43.5-108.8-66.5-171.2-66.5C2107.3,351.3,2088.7,353.3,2070.2,357.4z"/>
	<path d="M1545.1,2854.4l3.3-503.9L1320,1939.9c-2.7,183.8-7.4,435.7-7.7,450.6c-1.3,72-58.8,129.1-130.8,130l-573.8,6.9l-3.3,0.2
		c-36.5,0-70.5-14.5-95.7-40.9c-25.2-26.4-38.2-61.1-36.5-97.6c3.1-70,63.5-125.5,137.3-126.4l440.2-5.1
		c2.7-152.6,7.3-419.2,7.3-490.1c0-143.3,60.9-241.3,73.1-259.4L1469,991.4l-220.4,0.8l-210.6,309.3c-19.9,29.3-50,49-84.8,55.6
		c-34.7,6.5-70-0.8-99.3-20.7c-29.2-19.9-49-50-55.6-84.8c-6.6-34.8,0.8-70,20.7-99.2l249.9-366.9c24.6-36.1,65.3-57.7,109-57.9
		l427.9-1.6c40.4-1.4,141.6,1,210.5,50c34.7,24.6,145.6,110.6,207.9,159.1c93.1,62.9,122.1,160,118.2,229.2l-3.1,339.6l253.2,0.1h0
		c64.6,0,120.4,44.2,132.7,105c8,39.8-1.9,80.4-27.1,111.3c-25.3,30.9-62.7,48.6-102.6,48.6l-389.9-0.2c-35.1,0-69.3-14.3-94-39.2
		c-24.7-24.9-38.7-59.3-38.4-94.4l2.8-307.2l-317.2,496.7l238,427.6c11.1,19.9,16.9,42.5,16.7,65.3l-3.6,538.7
		c-0.5,72.5-59.9,131.5-133.3,131.5C1603.6,2987.2,1544.6,2927.5,1545.1,2854.4z M1884.5,1299.1c12.9,3.8,21.6,15.5,21.5,29
		l-2.8,307.2c-0.2,27.2,10.6,53.8,29.7,73c19.1,19.2,45.6,30.3,72.7,30.4l390,0.2c30.8,0,59.8-13.7,79.3-37.6
		c19.6-23.9,27.2-55.4,20.9-86.3c-9.5-46.9-52.9-80.9-103.3-80.9l-283.5-0.1l3.4-370.5c3.4-61.7-22.3-147.5-105.8-204
		c-62.9-48.9-173.4-134.6-207.6-158.9c-61.6-43.8-155-45.6-192.6-44.5l-428.3,1.6c-33.8,0.1-65.3,16.9-84.3,44.8l-249.9,366.9
		c-15.4,22.6-21.1,49.9-16,76.8c5.1,26.9,20.4,50.2,42.9,65.6c22.6,15.4,49.9,21.2,76.8,16c26.9-5.1,50.2-20.4,65.6-43l210.6-309.3
		c5.5-8.2,14.8-13.1,24.7-13.1l220.4-0.8c12.2-0.3,21.2,5.9,26.5,15.7c5.3,9.7,4.8,21.5-1.3,30.8l-339,516.7
		c-11.4,16.9-68.1,108.1-68.1,242.8c0,71.2-4.5,338-7.3,490.6c-0.3,16.2-13.3,29-29.6,29.2l-440.2,5.4
		c-57,0.7-105.3,44.5-107.7,97.7c-1.3,28.3,8.8,55.1,28.3,75.5c19.5,20.4,45.6,31.6,75.1,31.6c0.1,0,0.1,0,0.2,0l575.4-7
		c55.7-0.6,100.1-44.8,101.1-100.5c0.3-14.9,5-266.7,7.7-450.5c0.2-13.7,9.3-25.2,22.6-28.5c13.3-3.4,26.9,2.5,33.6,14.6
		l228.5,410.5c2.5,4.5,3.8,9.6,3.8,14.8l-3.3,503.8c-0.4,56.5,45.3,102.7,102.5,103.1c56.1,0,102-45.6,102.4-101.7l3.6-538.7
		c0.1-17.6-4.4-35.1-12.9-50.5l-246.7-443.3l326.8-511.8c5.7-8.9,15.1-13.9,25.1-13.9C1878.7,1297.8,1881.6,1298.3,1884.5,1299.1z"
		/>
</g>
</svg>
