<?xml version="1.0" encoding="iso-8859-1"?>
<!-- Generator: Adobe Illustrator 19.0.0, SVG Export Plug-In . SVG Version: 6.00 Build 0)  -->
<svg version="1.1" id="Capa_1" xmlns="http://www.w3.org/2000/svg" xmlns:xlink="http://www.w3.org/1999/xlink" x="0px" y="0px"
	 viewBox="0 0 512 512" style="enable-background:new 0 0 512 512;" xml:space="preserve">
<g>
	<g>
		<g>
			<path d="M256,0C114.844,0,0,114.844,0,256s114.844,256,256,256s256-114.844,256-256S397.156,0,256,0z M266.667,21.874
				c75.173,3.404,141.208,42.131,181.738,100.165l-17.611,11.783c-20.486-29.54-34.941-34.523-37.826-35.197
				c-3.927-0.885-8.042,0.479-10.625,3.604L370.958,116c-16.969-13.927-36.417-24.708-57.146-31.698l5.646-16.927
				c1.271-3.833,0.271-8.063-2.583-10.917c-2.103-2.103-14.059-11.768-50.208-13.447V21.874z M245.333,21.874v21.138
				c-36.15,1.678-48.105,11.344-50.208,13.447c-2.854,2.854-3.854,7.083-2.583,10.917l5.646,16.927
				c-24.833,8.344-47.542,22-66.646,40.063l-12.302-12.948c-2.792-2.927-7.042-4.042-10.844-2.844
				c-2.839,0.863-16.93,6.845-35.326,37.802l-18.38-10.349C93.978,70.359,164.296,25.543,245.333,21.874z M21.333,256
				c0-36.266,8.51-70.497,23.262-101.186l18.447,10.387c-15.609,32.861-12.68,48.021-11.802,50.872
				c1.177,3.854,4.438,6.719,8.427,7.396l17.531,2.958c-1.688,9.969-2.531,19.875-2.531,29.573c0,14.156,1.656,28.24,4.927,42
				l-17.177,4.146c-3.927,0.948-6.979,4.031-7.896,7.958c-0.668,2.91-2.535,18.259,15.362,49.991L52.22,371.911
				C32.668,337.676,21.333,298.169,21.333,256z M245.333,490.126c-75.173-3.404-141.208-42.132-181.738-100.165l17.611-11.783
				c20.486,29.54,34.941,34.523,37.826,35.197c3.948,0.854,8.042-0.479,10.625-3.604L141.042,396
				c16.969,13.927,36.417,24.708,57.146,31.698l-5.646,16.927c-1.271,3.833-0.271,8.063,2.583,10.917
				c2.103,2.103,14.059,11.768,50.208,13.447V490.126z M215.615,442.875l6.281-18.833c0.927-2.792,0.656-5.844-0.729-8.427
				c-1.396-2.594-3.802-4.49-6.635-5.25c-25.052-6.708-48.385-19.646-67.458-37.417c-2.146-2-4.958-3-7.969-2.844
				c-2.927,0.198-5.656,1.583-7.521,3.854l-12.625,15.281c-5.344-4.219-14.323-13.156-25.792-31.49
				c-11.521-18.458-15.594-30.49-17.042-36.969l19.135-4.625c2.854-0.688,5.302-2.521,6.76-5.073
				c1.458-2.552,1.802-5.594,0.938-8.406C98.344,287.531,96,271.823,96,256c0-11.677,1.406-23.75,4.188-35.885
				c0.656-2.865,0.104-5.875-1.531-8.313c-1.625-2.438-4.198-4.104-7.094-4.594l-19.469-3.281
				c0.979-6.729,4.219-18.979,14.375-38.063c10.219-19.219,18.594-28.76,23.479-33.25l13.698,14.396
				c2.01,2.115,4.813,3.313,7.729,3.313c0.01,0,0.031,0,0.052,0c2.938-0.01,5.74-1.24,7.74-3.385
				c20.479-21.917,46.531-37.573,75.365-45.302c2.844-0.76,5.24-2.656,6.635-5.25c1.385-2.583,1.656-5.635,0.729-8.427l-6.26-18.781
				C222.031,66.875,234.375,64,256,64c21.76,0,34.115,2.917,40.385,5.125l-6.281,18.833c-0.927,2.792-0.656,5.844,0.729,8.427
				c1.396,2.594,3.802,4.49,6.635,5.25c25.052,6.708,48.385,19.646,67.458,37.417c2.146,2.01,4.958,3,7.969,2.844
				c2.927-0.198,5.656-1.583,7.521-3.854l12.625-15.281c5.344,4.219,14.323,13.156,25.792,31.49
				c11.521,18.458,15.594,30.479,17.042,36.969l-19.146,4.625c-2.854,0.688-5.292,2.521-6.75,5.073
				c-1.458,2.552-1.802,5.594-0.938,8.406C413.656,224.469,416,240.177,416,256c0,11.677-1.406,23.75-4.188,35.885
				c-0.656,2.865-0.104,5.875,1.531,8.313c1.625,2.438,4.198,4.104,7.094,4.594l19.469,3.281
				c-0.979,6.729-4.219,18.969-14.375,38.063c-10.219,19.208-18.594,28.76-23.49,33.25l-13.688-14.396
				c-2.021-2.125-4.115-3.156-7.781-3.313c-2.938,0.01-5.74,1.24-7.74,3.385c-20.479,21.917-46.531,37.573-75.365,45.302
				c-2.844,0.76-5.24,2.656-6.635,5.25c-1.385,2.583-1.656,5.635-0.729,8.427l6.26,18.781C289.969,445.125,277.625,448,256,448
				C234.24,448,221.885,445.083,215.615,442.875z M266.667,490.126v-21.138c36.15-1.678,48.105-11.344,50.208-13.447
				c2.854-2.854,3.854-7.083,2.583-10.917l-5.646-16.927c24.833-8.344,47.542-22,66.646-40.063l12.302,12.948
				c2.781,2.917,6.958,3.99,10.854,2.844c2.829-0.861,16.832-6.805,35.141-37.5l18.016,10.932
				C417.38,442.042,347.339,486.474,266.667,490.126z M448.815,347.09c15.764-33.059,12.826-48.303,11.945-51.163
				c-1.177-3.854-4.438-6.719-8.427-7.396l-17.531-2.958c1.688-9.969,2.531-19.875,2.531-29.573c0-14.167-1.656-28.24-4.938-42
				l17.198-4.156c3.917-0.948,6.969-4.031,7.885-7.958c0.668-2.91,2.536-18.251-15.361-49.98l17.661-11.816
				c19.552,34.236,30.887,73.742,30.887,115.911c0,36.626-8.674,71.182-23.703,102.103L448.815,347.09z"/>
			<path d="M296.094,401.615c2.031-2.365,2.927-5.49,2.448-8.573l-9.063-58.885c6.302-2.656,12.156-6,17.542-10.01l46.385,37.219
				c2.427,1.958,5.583,2.76,8.646,2.156c3.052-0.573,5.708-2.448,7.271-5.146l32-55.417c1.552-2.698,1.854-5.938,0.823-8.875
				c-1.031-2.927-3.292-5.271-6.198-6.396l-55.302-21.521c0.458-3.49,0.688-6.865,0.688-10.167s-0.229-6.677-0.688-10.167
				l55.302-21.521c2.906-1.125,5.167-3.469,6.198-6.396c1.031-2.938,0.729-6.177-0.823-8.875l-32-55.417
				c-1.563-2.698-4.219-4.573-7.271-5.146c-3.063-0.573-6.219,0.219-8.646,2.156l-46.385,37.219
				c-5.385-4.01-11.24-7.354-17.542-10.01l9.063-58.885c0.479-3.083-0.417-6.208-2.448-8.573c-2.021-2.365-4.979-3.719-8.094-3.719
				h-64c-3.115,0-6.073,1.354-8.094,3.719c-2.031,2.365-2.927,5.49-2.448,8.573l9.063,58.885c-6.302,2.656-12.156,6-17.542,10.01
				l-46.385-37.219c-2.417-1.938-5.563-2.729-8.646-2.156c-3.052,0.573-5.708,2.448-7.271,5.146l-32,55.417
				c-1.552,2.698-1.854,5.938-0.823,8.875c1.031,2.927,3.292,5.271,6.198,6.396l55.302,21.521c-0.458,3.49-0.688,6.865-0.688,10.167
				s0.229,6.677,0.688,10.167l-55.302,21.521c-2.906,1.125-5.167,3.469-6.198,6.396c-1.031,2.938-0.729,6.177,0.823,8.875l32,55.417
				c1.563,2.698,4.219,4.573,7.271,5.146c3.083,0.604,6.229-0.198,8.646-2.156l46.385-37.219c5.385,4.01,11.24,7.354,17.542,10.01
				l-9.063,58.885c-0.479,3.083,0.417,6.208,2.448,8.573c2.021,2.365,4.979,3.719,8.094,3.719h64
				C291.115,405.333,294.073,403.979,296.094,401.615z M267.063,328.74l8.5,55.26h-39.125l8.5-55.26
				c0.813-5.25-2.365-10.292-7.438-11.833c-9.635-2.927-18.073-7.74-25.104-14.323c-3.885-3.635-9.833-3.854-13.969-0.542
				l-43.49,34.896l-19.563-33.875l51.917-20.208c4.938-1.917,7.719-7.177,6.531-12.333C192.594,265.208,192,260.469,192,256
				s0.594-9.208,1.823-14.521c1.188-5.156-1.594-10.417-6.531-12.333l-51.917-20.208l19.563-33.875l43.49,34.896
				c4.135,3.313,10.083,3.094,13.969-0.542c7.031-6.583,15.469-11.396,25.104-14.323c5.073-1.542,8.25-6.583,7.438-11.833
				l-8.5-55.26h39.125l-8.5,55.26c-0.813,5.25,2.365,10.292,7.438,11.833c9.635,2.927,18.073,7.74,25.104,14.323
				c3.865,3.635,9.833,3.854,13.969,0.542l43.49-34.896l19.563,33.875l-51.917,20.208c-4.938,1.917-7.719,7.177-6.531,12.333
				C319.406,246.792,320,251.531,320,256s-0.594,9.208-1.823,14.521c-1.188,5.156,1.594,10.417,6.531,12.333l51.917,20.208
				l-19.563,33.875l-43.49-34.896c-4.135-3.313-10.104-3.094-13.969,0.542c-7.031,6.583-15.469,11.396-25.104,14.323
				C269.427,318.448,266.25,323.49,267.063,328.74z"/>
		</g>
	</g>
</g>
<g>
</g>
<g>
</g>
<g>
</g>
<g>
</g>
<g>
</g>
<g>
</g>
<g>
</g>
<g>
</g>
<g>
</g>
<g>
</g>
<g>
</g>
<g>
</g>
<g>
</g>
<g>
</g>
<g>
</g>
</svg>
