<?xml version="1.0" encoding="utf-8"?>
<!-- Generator: Adobe Illustrator 17.1.0, SVG Export Plug-In . SVG Version: 6.00 Build 0)  -->
<!DOCTYPE svg PUBLIC "-//W3C//DTD SVG 1.1//EN" "http://www.w3.org/Graphics/SVG/1.1/DTD/svg11.dtd">
<svg version="1.1" id="Calque_1" xmlns="http://www.w3.org/2000/svg" xmlns:xlink="http://www.w3.org/1999/xlink" x="0px" y="0px"
	 viewBox="0 576.9 3000 2122.4" enable-background="new 0 576.9 3000 2122.4" xml:space="preserve">
<g>
	<path d="M2546.6,1116.2c2.7-2.6,5.5-4.9,8.2-7.6c98.5-98.5,125.7-220.1,63.2-282.6c-22.1-22.1-52.3-33.8-87.4-33.8
		c-61.5,0-134.5,36.3-195.3,97c-16.3,16.3-30.5,33.3-42.9,50.5c-12.3-17.2-26.5-34.3-42.9-50.5c-60.7-60.8-133.7-97-195.2-97
		c-35.1,0-65.3,11.7-87.4,33.8c-61.6,61.7-36,180.6,59.2,278.4h-112h-100.8c-81.9-159.4-246.5-195.6-254-197.1l-427.4-1.2
		c-442.5,0-802.5,360-802.5,802.5s360,802.5,802.5,802.5h483.5c120.1,0,217.8-97.7,217.8-217.8c0-39.6-10.7-76.6-29.3-108.6
		c104.3-16.2,184.5-106.3,184.5-215c0-44.5-13.5-85.9-36.5-120.4c81.7-31.5,139.9-110.6,139.9-203.2c0-38.4-10.1-74.4-27.6-105.8
		h64.9h107.1h6.4h105.7h127.9h6.7l0-0.3c117-3.7,211.1-99.7,211.1-217.5C2694.3,1226.7,2632.4,1145.5,2546.6,1116.2z M2236.5,1428
		H2225l-16.9-105.8l-16.9-105.8h45.3L2236.5,1428L2236.5,1428z M2414.6,968.4c44.3-44.4,90.2-64.2,116-64.2c5.3,0,8,0.9,7.9,0.7
		c5.2,10.1-3.6,65-63,124.4c-44.3,44.3-90.2,64.2-116,64.2c-4.8,0-7.3-0.7-7.8-0.7c-0.1,0-0.1,0-0.1,0
		C2346.4,1082.7,2355.2,1027.8,2414.6,968.4z M2045.9,905.5c0,0,2.3-1.3,8.6-1.3c25.8,0,71.7,19.8,116,64.2
		c59.8,59.8,68.3,115.2,63.7,123.8c0,0-2.3,1.3-8.6,1.3c-25.8,0-71.7-19.8-116-64.2C2049.7,969.5,2041.2,914.2,2045.9,905.5z
		 M1979.9,1645.9c0,58.4-47.4,105.8-105.8,105.8h-103.4H1655v112.1h115.7c58.3,0,105.7,47.4,105.7,105.8
		c0,58.4-47.4,105.8-105.7,105.8h-155.2h-57.3h-6.7v112.1h6.7h57.3c58.3,0,105.7,47.4,105.7,105.8s-47.4,105.8-105.7,105.8h-483.5
		c-380.7,0-690.3-309.7-690.3-690.3s309.7-690.3,690.3-690.3h409.2c18.9,5,85.6,26.5,137.7,86.1h-327.6v112.1h535.7l-51.3,211.5
		h-174.1h-6.6V1540h6.6h146.9h65.6C1932.5,1540.1,1979.9,1587.5,1979.9,1645.9z M1951.1,1428l51.3-211.5h75.2l16.9,105.8l16.9,105.8
		H1951.1z M2348.5,1428v-211.5h65.3l-28.6,211.5H2348.5z M2498.6,1425.5l26.6-196.6c33.7,17.7,57,52.6,57,93.3
		C2582.2,1372.9,2546.3,1415.3,2498.6,1425.5z"/>
</g>
</svg>
