<?xml version="1.0" encoding="utf-8"?>
<!-- Generator: Adobe Illustrator 17.1.0, SVG Export Plug-In . SVG Version: 6.00 Build 0)  -->
<!DOCTYPE svg PUBLIC "-//W3C//DTD SVG 1.1//EN" "http://www.w3.org/Graphics/SVG/1.1/DTD/svg11.dtd">
<svg version="1.1" id="Calque_1" xmlns="http://www.w3.org/2000/svg" xmlns:xlink="http://www.w3.org/1999/xlink" x="0px" y="0px"
	 viewBox="396 410.7 473.5 480.3" enable-background="new 396 410.7 473.5 480.3" xml:space="preserve">
<path d="M793.8,632.8c9.1-8.8,14.1-20.6,13.5-32.8c-0.6-12.3-6.5-23.5-16.6-31.6c-9.8-7.8-22.6-11.8-35.8-11.2
	c-31.3,1.4-50.8,19.4-69.7,36.8c-8.9,8.2-18,16.5-28.5,23.4c6-9.8,13.2-18.6,20.2-27.1c16.2-19.7,33-40.2,33-71.4
	c0-27.8-20-50.4-44.5-50.4c-12.1,0-23.4,5.5-31.6,14.9c-8.2-9.4-19.5-14.9-31.6-14.9c-24.5,0-44.5,22.6-44.5,50.4
	c0,31.2,16.8,51.5,33,71.2c3.3,4,6.7,8.1,9.9,12.3c-5.7-4.7-11.1-9.8-16.4-14.7c-18.8-17.6-38.3-35.8-69.6-37.4
	c-27.8-1.5-51.4,17.5-52.7,42.4c-0.7,12.3,4.2,24.1,13.2,33c-9.9,7.8-16,19-16.7,31.3c-1.3,24.9,20.1,46.3,47.9,47.8
	c31.2,1.7,52.4-14.3,73-29.7c8-6,16.2-12.1,25-17.3c-64.4,58.2-87.2,98.2-87.2,148.4c0,4.7,3.8,8.5,8.5,8.5s8.5-3.8,8.5-8.5
	c0-45.2,21.8-82.2,83.6-137.6c-4.9,11.9-11.6,22.7-18.3,33.3c-14,22.2-28.4,45.2-23.6,76.2c2.1,13.1,8.7,24.8,18.7,32.8
	c8.4,6.7,18.2,10.2,28.4,10.2c2.3,0,4.6-0.2,6.9-0.5c12.7-2,23.7-9.4,30.8-20.3c10.1,8.2,22.8,11.9,35.5,9.9
	c12.5-2,23.3-9.1,30.6-20c7.1-10.7,9.8-23.8,7.8-37c-4.9-31-25.6-48.3-45.7-65.1c-9.3-7.8-18.8-15.7-27-25.2
	c9.7,5.5,18.5,12.2,27.1,18.8c20.5,15.6,41.6,31.7,73,30.3c13.2-0.6,25.5-5.7,34.6-14.5c9.4-9,14.2-20.7,13.7-33
	C809.7,652,803.6,640.7,793.8,632.8z M569,661.2c-19.7,14.8-36.7,27.7-61.8,26.3c-18.3-1-32.6-14.4-31.7-29.8
	c0.5-10.1,7.6-19.1,18.3-23.5c3-1.3,5.1-4.2,5.3-7.4c0.2-3.3-1.6-6.4-4.5-8c-10.2-5.5-16.2-15.3-15.7-25.4
	c0.8-14.9,15.2-26.3,32.6-26.3c0.7,0,1.4,0,2.1,0.1c25.1,1.3,40.7,16,58.9,32.9c12.8,12,26.1,24.3,43.7,33
	C597.5,639.8,582.5,651.1,569,661.2z M603.9,579.1c-15.6-18.9-29.1-35.2-29.1-60.3c0-18.4,12.3-33.3,27.4-33.3
	c9.8,0,19,6.5,23.8,16.9c1.4,3,4.4,4.9,7.7,4.9s6.3-1.9,7.7-4.9c4.9-10.4,14-16.9,23.8-16.9c15.1,0,27.4,14.9,27.4,33.3
	c0,25.2-13.5,41.6-29.1,60.6c-10.9,13.2-22.1,26.9-29.7,44.7c0,0.1-0.1,0.2-0.1,0.3c0-0.1-0.1-0.2-0.1-0.3
	C626.2,606.1,614.9,592.4,603.9,579.1z M678,700.9c19.3,16.1,35.9,30,39.8,54.6c1.4,8.9-0.4,17.8-5.1,24.9
	c-4.6,6.9-11.3,11.4-19,12.6c-10.6,1.7-21.4-3.3-28.3-12.9c-1.9-2.6-5.1-4-8.3-3.5c-3.2,0.5-5.8,2.8-6.8,5.9
	c-3.5,11.2-12.3,19.3-22.9,20.9c-7.7,1.2-15.5-1-21.9-6.1c-6.7-5.3-11.1-13.2-12.5-22.1c-3.9-24.7,7.7-43.1,21.1-64.5
	c9.3-14.8,19.6-31.1,24.7-50.8C649.7,677.3,664.6,689.7,678,700.9z M784.7,684.9c-6.1,5.8-14.4,9.3-23.5,9.7
	c-25.1,1.2-42.1-11.8-61.8-26.9c-14-10.7-28.4-21.7-46.9-28.5c17.9-8.5,31.3-20.8,44.2-32.8c18.2-16.7,33.9-31.2,58.9-32.3
	c9.1-0.4,17.7,2.2,24.3,7.5c6.3,5,9.9,11.7,10.2,19c0.5,10.1-5.6,19.8-15.8,25.2c-2.9,1.6-4.7,4.6-4.5,7.9c0.2,3.3,2.2,6.2,5.2,7.5
	c10.7,4.5,17.6,13.6,18.1,23.7C793.5,672.3,790.5,679.4,784.7,684.9z"/>
</svg>
