<?xml version="1.0" encoding="utf-8"?>
<!-- Generator: Adobe Illustrator 17.1.0, SVG Export Plug-In . SVG Version: 6.00 Build 0)  -->
<!DOCTYPE svg PUBLIC "-//W3C//DTD SVG 1.1//EN" "http://www.w3.org/Graphics/SVG/1.1/DTD/svg11.dtd">
<svg version="1.1" id="Calque_1" xmlns="http://www.w3.org/2000/svg" xmlns:xlink="http://www.w3.org/1999/xlink" x="0px" y="0px"
	 viewBox="0 0 512 512" enable-background="new 0 0 512 512" xml:space="preserve">
<path d="M425.8,133.4c7-7,7-18.4,0-25.5l-10.4-10.4c-7-7-18.4-7-25.5,0c-1.1,1.1-2.1,2.4-2.9,3.8l-1.3,2.3
	c-10.7-7.4-22.7-13-35.3-16.4l-8.8-2.4c-3.2-0.9-6.5,1-7.3,4.2c-0.1,0.5-0.2,1-0.2,1.5V117l-3-1.5L313.8,104l-17.6-17.6
	c-2.3-2.3-6.1-2.3-8.5,0c-0.3,0.3-0.5,0.6-0.7,0.9l-10.2,15.3h-41.6L225,87.3c-1.8-2.8-5.6-3.5-8.3-1.7c-0.3,0.2-0.6,0.5-0.9,0.7
	L198.2,104L181,115.5l-3,1.5V90.7c0-3.3-2.7-6-6-6c-0.5,0-1,0.1-1.5,0.2l-8.8,2.4c-12.6,3.4-24.6,8.9-35.3,16.4l-1.3-2.3
	c-4.9-8.6-15.9-11.6-24.6-6.7c-1.4,0.8-2.7,1.8-3.8,2.9l-10.4,10.4c-7,7-7,18.4,0,25.5l6.2,6.2C81.7,157.4,76,177.9,76,198.7
	c0,2.7,1.8,5.1,4.5,5.8l61.4,16.4l0.1,54.3c-0.1,11,8.8,19.9,19.8,20c0.1,0,0.2,0,0.4,0c1.2,13.2,4,28.1,6.6,41.7
	c2.2,10,3.8,20,4.8,30.2c0,6.2-1.7,12.4-4.9,17.7H166c-3.3,0-6,2.7-6,6v48c0,3.3,2.7,6,6,6h42c1.6,0,3.1-0.6,4.2-1.8l4.2-4.2h79
	l4.2,4.2c1.1,1.1,2.7,1.8,4.2,1.8h42c3.3,0,6-2.7,6-6v-48c0-3.3-2.7-6-6-6h-2.6c-3.2-5.4-4.9-11.5-5.2-17.7c1-10,2.6-19.9,4.8-29.8
	c2.9-13.9,5.1-27.9,6.6-42c0.1,0,0.2,0,0.4,0c11.1,0,20-9,20-20.1l-0.5-54.1l62-16.5c2.6-0.7,4.5-3.1,4.5-5.8
	c0-20.8-5.7-41.3-16.4-59.1L425.8,133.4z M401.9,104.3c1.9-0.2,3.7,0.4,5,1.7l10.4,10.4c2.3,2.3,2.3,6.1,0,8.5l-51,51
	c-1.5-1.9-3.3-3.5-5.4-4.7l36.5-63.8C398.4,105.7,400,104.6,401.9,104.3z M352,180.7c3.3,0,6,2.7,6,6c0,3.3-2.7,6-6,6
	c-3.3,0-6-2.7-6-6C346,183.4,348.7,180.7,352,180.7z M347.3,98.8c11.6,3.1,22.6,8.3,32.4,15.3l-31.4,55c-0.8,0.2-1.5,0.4-2.3,0.7
	V98.5L347.3,98.8z M205.4,113.7c0.3-0.2,0.6-0.5,0.9-0.8l12.8-12.8L227,112c1.1,1.7,3,2.7,5,2.7h48c2,0,3.9-1,5-2.7l7.9-11.9
	l12.8,12.8c0.3,0.3,0.6,0.5,0.9,0.8l11.2,7.4l-22,17.6h-79.8l-21.9-17.6L205.4,113.7z M160,180.7c3.3,0,6,2.7,6,6c0,3.3-2.7,6-6,6
	s-6-2.7-6-6C154,183.4,156.7,180.7,160,180.7z M164.7,98.8l1.3-0.3v71.3c-0.7-0.3-1.5-0.5-2.3-0.7l-31.4-55
	C142.1,107.1,153.1,102,164.7,98.8z M94.7,116.4l10.4-10.4c2.3-2.3,6.1-2.3,8.5,0c0.4,0.4,0.7,0.8,1,1.3l36.5,63.9
	c-2.1,1.2-3.9,2.8-5.4,4.7l-50.9-51C92.4,122.6,92.4,118.8,94.7,116.4z M101.2,148.3l41.1,41.1c1.4,9.7,10.4,16.4,20.1,15.1
	c1.2-0.2,2.5-0.5,3.7-0.9v11.3l-77.9-20.8C88.8,178,93.3,162.3,101.2,148.3z M154,275.1l-0.1-51.1l16.6,4.4c1.8,0.5,3.7,0.1,5.2-1
	c1.5-1.1,2.3-2.9,2.3-4.8v-63.1l48,19.2v57.9l-56.2,22.5l4.5,11.1l60-24c2.3-0.9,3.8-3.1,3.8-5.6v-66c0-2.5-1.5-4.7-3.8-5.6
	L178,146.6v-16.2l5.3-2.6l27,21.6c1.1,0.8,2.4,1.3,3.8,1.3h36v103.7l-85.4,28.4c-4.2,1.4-8.8-0.9-10.2-5.1
	C154.2,276.9,154,276,154,275.1z M205.5,432.7H172v-36h33.5l12,12H202v12h15.5L205.5,432.7z M228.5,426.7l7.8-7.8
	c2.3-2.3,2.3-6.1,0-8.5l-7.8-7.8h55l-7.8,7.8c-2.3,2.3-2.3,6.1,0,8.5l7.8,7.8H228.5z M340,432.7h-33.5l-12-12H310v-12h-15.5l12-12
	H340V432.7z M304,384.7c-1.6,0-3.1,0.6-4.2,1.8l-4.2,4.2h-79l-4.2-4.2c-1.1-1.1-2.7-1.8-4.2-1.8h-26c2.5-5.8,3.8-12,3.6-18.3
	c-1-10.7-2.7-21.3-5-31.8c-3-13.9-5.2-28-6.6-42.1L256,265l81.8,27.3c-1.4,14.3-3.6,28.5-6.6,42.6c-2.3,10.4-4,20.9-5,31.5
	c0,6.3,1.3,12.6,3.9,18.3H304z M358,275.2c0,4.5-3.6,8.1-8.1,8.1c-0.9,0-1.7-0.1-2.6-0.4L262,254.4V150.7h36c1.4,0,2.7-0.5,3.8-1.3
	l27-21.6l5.3,2.6v16.2l-56.2,22.5c-2.3,0.9-3.8,3.1-3.8,5.6v66c0,2.5,1.5,4.7,3.8,5.6l60,24l4.5-11.1L286,236.6v-57.9l48-19.2v63.1
	c0,3.3,2.7,6,6,6c0.5,0,1-0.1,1.5-0.2l16-4.3L358,275.2z M423.9,194.1L346,214.9v-11.3c9.2,3.4,19.4-1.3,22.8-10.5
	c0.4-1.2,0.7-2.4,0.9-3.7l41.1-41.1C418.8,162.3,423.2,178,423.9,194.1z"/>
<path d="M289.7,309.3l36.9,9.2l2.9-11.6l-36.9-9.2c-24-6-49.2-6-73.2,0l-36.9,9.2l2.9,11.6l36.9-9.2
	C244.5,303.8,267.6,303.8,289.7,309.3z"/>
<path d="M219.4,327.7l-30.9,7.7l2.9,11.6l30.9-7.7c22.1-5.5,45.3-5.5,67.4,0l30.9,7.7l2.9-11.6l-30.9-7.7
	C268.6,321.7,243.5,321.7,219.4,327.7z"/>
</svg>
