<?xml version="1.0" encoding="utf-8"?>
<!-- Generator: Adobe Illustrator 17.1.0, SVG Export Plug-In . SVG Version: 6.00 Build 0)  -->
<!DOCTYPE svg PUBLIC "-//W3C//DTD SVG 1.1//EN" "http://www.w3.org/Graphics/SVG/1.1/DTD/svg11.dtd">
<svg version="1.1" id="Calque_1" xmlns="http://www.w3.org/2000/svg" xmlns:xlink="http://www.w3.org/1999/xlink" x="0px" y="0px"
	 viewBox="-477.6 0 3477.6 4000" enable-background="new -477.6 0 3477.6 4000" xml:space="preserve">
<path d="M1583.8,3054v-739.7c0-34.7-23.4-63.5-55.3-72.7V1262c0-55.7,18-108.5,49.3-145.4l6-7.1v-90.3h-16.9v-86.6h-80.2
	c-28.5-94.8-96.9-161.7-176.7-161.7c-79.6,0-148.2,66.9-176.7,161.7h-80.2v86.6h-16.9v90.3l6,7.1c31.3,36.7,49.1,89.8,49.1,145.4
	v229.4c-11.8-3.9-26.6-6.2-43.7-6.2c-46.9,0-75.9,16.1-75.9,42.2v227.3c0,26,29,42.2,75.9,42.2c17.1,0,31.9-2.2,43.7-6.2v448.1
	c-0.7,0-1.5-0.4-2.2-0.4c-41.8,0-75.9,34.1-75.9,75.9V3065c-2.8,15.4-4.3,31.7-4.3,48c0,55.8,16.3,116.2,52.3,116.2h476.6
	c36,0,52.3-60.3,52.3-116.2C1590.2,3092.8,1588.1,3072.2,1583.8,3054L1583.8,3054z M1073.1,1743.3c-5.4,1.5-14.1,3-25.3,3
	s-19.9-1.5-25.3-3v-204.6c5.4-1.5,14.1-3,25.3-3c11.1,0,19.9,1.5,25.3,3V1743.3z M1549.9,949.4v59H1500c-1.3-20.4-4.3-40.3-8.8-59
	H1549.9L1549.9,949.4z M1310,821.4c71.6,0,130.8,80.6,139.2,184h-278.7C1179,902,1238.4,821.4,1310,821.4L1310,821.4z M1069.9,949.4
	h58.8c-4.7,18.7-7.7,38.6-9,59h-49.8V949.4L1069.9,949.4z M1086.8,1091.3v-21.4H1533v21.4c-35.2,45.2-55.1,106.8-55.1,170.7v982.6
	c-27,11.6-46.1,38.4-46.1,69.7v673.9h-56.4v-673.9c0-8.4-1.7-16.3-4.3-23.8v-766.7h-143.4v766.7c-2.6,7.7-4.3,15.4-4.3,23.8v673.9
	h-58.7v-673.9c0-21.4-9-40.5-23.1-54.2v-997.9C1142.1,1198.3,1122,1136.4,1086.8,1091.3L1086.8,1091.3z M1354.4,1540.7V2262
	c-13.9-14.4-33.2-23.6-54.9-23.6c-21.6,0-41,9.2-54.7,23.6v-721.3H1354.4L1354.4,1540.7z M1537.1,3195.3l-474.5,0.4
	c-4.3-2.1-12.9-18-17.2-46.7c12.4,8.8,27.4,14.1,43.9,14.1c41.8,0,75.9-34.1,75.9-75.9v-48.4h58.7v48.4c0,41.8,34.1,75.9,75.9,75.9
	c41.8,0,75.9-34.1,75.9-75.9v-48.4h56.2v48.4c0,41.8,34.1,75.9,75.9,75.9c17.6,0,33.5-6.4,46.5-16.3
	C1550.3,3176,1541.6,3192.5,1537.1,3195.3L1537.1,3195.3z"/>
</svg>
