<?xml version="1.0" encoding="utf-8"?>
<!-- Generator: Adobe Illustrator 17.1.0, SVG Export Plug-In . SVG Version: 6.00 Build 0)  -->
<!DOCTYPE svg PUBLIC "-//W3C//DTD SVG 1.1//EN" "http://www.w3.org/Graphics/SVG/1.1/DTD/svg11.dtd">
<svg version="1.1" id="Calque_1" xmlns="http://www.w3.org/2000/svg" xmlns:xlink="http://www.w3.org/1999/xlink" x="0px" y="0px"
	 viewBox="-477.6 0 3477.6 4000" enable-background="new -477.6 0 3477.6 4000" xml:space="preserve">
<g>
	<path d="M2002.3,1253.3c6,6,12,6,18,6s12-3,18-6l444-444c9-9,9-24,0-33c-9-9-24-9-33,0l-447,441
		C1993.3,1226.3,1993.3,1241.3,2002.3,1253.3z"/>
	<path d="M2635.3,623.3c-6-6-15-6-24-6c-9,3-198,42-267,102l0,0l-393,396c-3,3-42,42-48,99c-3,18-15,33-33,36c-12,0-21,3-30,6
		c-24,6-45,18-66,36l-36,27c-21-12-48-9-66,6l-42,42c-21,21-21,54,0,75l9,9l-102,102l-63,6c-12,0-21,9-21,21l-6,63l-111,111l-63,6
		c-12,0-21,9-21,21l-6,63l-1284,1287c-27,27-27,72,0,99l66,66c12,12,30,21,51,21c18,0,36-6,51-21l1281-1284l66-9c9,0,18-9,21-21
		l12-69l102-102l66-9c9,0,18-9,21-21l12-69l96-96l9,9c21,21,54,21,75,0l42-42c21-21,21-54,0-75l30-24c0,0,0,0,3-3c18-18,30-42,36-66
		c3-12,6-24,6-36c3-15,15-27,30-30c60-6,102-45,105-48l393-393l0,0c60-69,102-258,102-267C2641.3,638.3,2641.3,629.3,2635.3,623.3z
		 M94.3,3263.3c-9,9-24,9-33,0l-66-66c-9-9-9-24,0-33l1278-1278l96,96L94.3,3263.3z M1465.3,1889.3c-3,3-6,12-6,18c0,3,0,3,0,6
		l-6,45l-36,6l-120-117l3-39l51-6c6,0,12-3,15-6l108-108l96,96L1465.3,1889.3z M1666.3,1688.3c-3,3-6,12-6,18c0,3,0,3,0,6l-6,45
		l-36,6l-117-117l0-39l51-6c6,0,12-3,15-6l108-108l96,96L1666.3,1688.3z M1897.3,1550.3l-42,42c-3,3-6,3-6,0l-27-27l-132-132l0,0
		l-27-27c-3-3-3-6,0-6l42-42c3-3,6-3,6,0l183,183C1900.3,1547.3,1900.3,1550.3,1897.3,1550.3z M2503.3,881.3l-393,393
		c0,0-33,30-75,33c-39,3-69,33-75,72c0,9-3,21-6,30c-3,15-12,30-24,42l-33,27l0,0l-126-126l30-24c0,0,0,0,3-3c12-12,27-21,42-24
		c9-3,18-3,27-6c39-6,69-36,75-78s33-72,33-72l396-390c42-36,144-66,207-84C2569.3,737.3,2536.3,839.3,2503.3,881.3z"/>
</g>
</svg>
