<?xml version="1.0" encoding="utf-8"?>
<!-- Generator: Adobe Illustrator 17.1.0, SVG Export Plug-In . SVG Version: 6.00 Build 0)  -->
<!DOCTYPE svg PUBLIC "-//W3C//DTD SVG 1.1//EN" "http://www.w3.org/Graphics/SVG/1.1/DTD/svg11.dtd">
<svg version="1.1" id="Calque_1" xmlns="http://www.w3.org/2000/svg" xmlns:xlink="http://www.w3.org/1999/xlink" x="0px" y="0px"
	 viewBox="0 0 512 512" enable-background="new 0 0 512 512" xml:space="preserve">
<path d="M235,109.1c0,2.2-1.7,3.9-3.9,3.9c-5.4,0-52.3,1.9-52.3,51.9v12.2c0,2.2-1.7,3.9-3.9,3.9c-2.2,0-3.9-1.8-3.9-3.9v-12.2
	c0-57.6,54-59.7,60.1-59.7h0C233.3,105.2,235,107,235,109.1z M357.6,208.3c0.7,1.1,0.8,2.5,0.3,3.7c-1.2,2.6-11.7,25.8-25.1,25.8
	c-11.9,0-52.5-21.5-57.1-23.9c-1.6-0.8-2.4-2.7-2-4.4c0.4-1.7,2-3,3.8-3h76.8C355.7,206.5,356.9,207.2,357.6,208.3z M348,214.3
	h-54.3c15.6,7.7,33.4,15.6,39.1,15.6C337.9,229.9,344.1,221.4,348,214.3z M249.9,209.4c0.5,1.7-0.2,3.5-1.7,4.4
	c-4,2.5-39.7,24-51.7,24c-13.4,0-24-23.1-25.1-25.8c-0.5-1.2-0.4-2.6,0.3-3.7c0.7-1.1,2-1.8,3.3-1.8h71.2
	C247.9,206.5,249.4,207.7,249.9,209.4z M231.7,214.3h-50.5c4.2,7.7,10.4,15.6,15.3,15.6C202,229.9,218,222,231.7,214.3z
	 M168.5,297.2c-6.7,1.3-12.8,4.1-18.2,8.5c-1.7,1.4-1.9,3.8-0.6,5.5c0.8,0.9,1.9,1.4,3,1.4c0.9,0,1.7-0.3,2.5-0.9
	c4.4-3.6,9.3-5.9,14.7-6.9c2.1-0.4,3.5-2.4,3.1-4.6C172.7,298.2,170.6,296.8,168.5,297.2z M152.1,295.5c0.4,0,0.9-0.1,1.3-0.2
	c3.5-1.2,7.3-1.9,11.3-1.9c2.2,0,3.9-1.8,3.9-3.9s-1.8-3.9-3.9-3.9c-4.8,0-9.5,0.8-13.9,2.3c-2,0.7-3.1,2.9-2.4,5
	C149,294.5,150.5,295.5,152.1,295.5z M396.6,265.6c20.7,24,17.7,38.7-14.6,70.3c-0.4,5.9-3.2,26.6-22.7,46.1
	c-8.9,8.9-21.1,13.6-34.9,13.6c-2.2,0-4.4-0.1-6.6-0.4c-12.8-1.3-25.8-6.7-32.4-13.3c-1.8-1.8-3.9-3.4-5.9-4.7
	c-1.6,3.1-4.7,5.3-8.3,5.3c-2.1,0-4-0.8-5.6-2c-1.6,1.2-3.5,2-5.6,2c-3.6,0-6.6-2.1-8.1-5c-2,1.3-4.1,2.6-5.9,4.4
	c-6.6,6.6-19.6,11.9-32.4,13.3c-2.2,0.2-4.4,0.4-6.6,0.4c-13.8,0-26-4.7-34.9-13.6c-19.5-19.5-22.3-40.2-22.8-46.1
	c-32.3-31.6-35.3-46.3-14.6-70.3c12-13.9,14.3-21.4,14.5-21.9l0-33.2c0-3.3,0.9-5.7,2.2-7.9c-0.8-0.4-1.5-1-1.8-1.9
	c-0.6-1.4-0.3-3.1,0.8-4.2l9.3-9.7v-21.9c0-70.1,70.7-70.9,71.4-70.9h33.8l0,0h0h35.1c0.7,0,70,0.8,70,70.9v21.7l10.4,9.6
	c1.2,1.1,1.6,2.8,1,4.3c-0.3,0.8-0.9,1.4-1.6,1.9c1.3,2.2,2.2,4.7,2.2,8v33.2C382.3,244.2,384.6,251.6,396.6,265.6z M371.7,250.4
	c2.2-2,2.6-5.5,2.6-6.1l0-34c0-3.2-1.2-5-2.6-6v6V250.4z M167.5,184.5h194.7v-19.5c0-62.3-59.7-63.1-62.2-63.1h-35.1h0l0,0h-33.8
	c-2.6,0-63.6,0.9-63.6,63.1L167.5,184.5L167.5,184.5z M162.4,195.3h205.5l-3.2-3H165.3L162.4,195.3z M363.9,210.4v-7.3H167.5v7.3
	c0,14.5,2.4,25,7.2,31.2c3.9,5.1,9.4,7.4,17.2,7.4c11.3,0,25.3-5,38.8-9.9c13.2-4.7,25.6-9.2,35.8-9.2c10.2,0,22.6,4.5,35.6,9.2
	c13.2,4.8,26.9,9.7,37.9,9.7C351.1,248.8,363.9,244.5,363.9,210.4z M358.3,251v9.6c1.5-2.4,3-4.8,4.5-7.5c0.2-0.4,0.7-0.6,1.1-0.9
	v-7.1C362.3,247.5,360.4,249.3,358.3,251z M320.8,293.4c3.1,0,6.9-0.6,11.3-2.8c6-4.2,12.4-10.2,18.9-19.1c-0.2-0.4-0.5-0.8-0.5-1.3
	V255c-3.2,1-6.5,1.7-10.4,1.7c-12.4,0-26.7-5.2-40.5-10.2c-12.4-4.5-24.2-8.7-33-8.7c-8.8,0-20.6,4.2-33.1,8.7
	c-14.2,5.1-28.8,10.3-41.4,10.3c-4.9,0-9.3-0.9-13.2-2.5v15.9c0,0.2-0.2,0.3-0.2,0.5c1.1,1.4,2.2,3.1,3.3,4.4
	c13.2,16.1,23,18.4,29.8,18.4c8.7,0,16.9-4.3,25.6-9c9.2-4.8,18.7-9.8,29.2-9.8c10.7,0,20.1,5,29.2,9.8
	C304.3,289.1,312.3,293.4,320.8,293.4z M297.9,294.5v2.2c2.6,0.6,5.2,1.1,7.9,1.3C303.1,297,300.5,295.8,297.9,294.5z M286.9,288.8
	v4.3c1,0.4,2.1,0.8,3.1,1.2v-3.9C289,289.8,288,289.3,286.9,288.8z M275.1,283.9v4.6c1.3,0.5,2.7,1,4,1.5v-4.9
	C277.8,284.7,276.4,284.3,275.1,283.9z M266.5,282.5c-0.9,0-1.7,0.2-2.6,0.3v3.5c0.2,0,0.5-0.1,0.7-0.1c0.9,0,1.8,0.4,2.7,0.5v-4.1
	C267,282.6,266.8,282.5,266.5,282.5z M253,285.6v3.4c1.1-0.4,2.1-0.8,3.2-1.1v-3.3C255.1,284.9,254,285.2,253,285.6z M241.8,291v2.5
	c1.1-0.4,2.2-0.9,3.3-1.3v-2.9C244.1,289.8,242.9,290.4,241.8,291z M228.3,297.6c1.9-0.4,3.9-0.8,5.7-1.4V295
	C232.1,295.9,230.2,296.8,228.3,297.6z M168.6,246.4c-0.4-0.5-0.7-0.9-1-1.4v9c0.2,0.4,0.5,0.7,0.7,1.1c0.9,1.6,1.8,2.9,2.7,4.4
	v-10.6C170.2,248,169.3,247.3,168.6,246.4z M157.1,244.7c0,0.3,0.4,3.7,2.6,5.8v-40v-6c-1.4,1-2.6,2.8-2.6,6V244.7z M133.2,304.5
	c-0.7-12.8,6.3-22.6,12.3-28.7c7.7-7.7,11.2-13.6,12.8-17.2c-2.4-1-4.2-2.5-5.6-4.3c-2.4,4.1-6.1,9.5-12,16.3
	C130.3,282.8,125.8,291.1,133.2,304.5z M182.6,307.8l-18.7-42.6c-2.4,4.2-6.3,9.7-12.8,16.2c-13.9,13.9-13.5,29.5,1.3,46.3
	C156.6,321,166.1,309.9,182.6,307.8z M250.7,329.2c0-0.9-0.7-1.6-1.6-1.6c-0.9,0-1.6,0.7-1.6,1.6v33.1c0,1.8,3.1,1.8,3.1,0V329.2z
	 M261.6,318.4c0-0.9-0.7-1.6-1.6-1.6c-0.9,0-1.6,0.7-1.6,1.6v10.8v33.1v10.8c0,1.7,3.2,1.7,3.2,0L261.6,318.4L261.6,318.4z
	 M272.8,318.4c0-0.9-0.7-1.6-1.6-1.6c-0.9,0-1.6,0.7-1.6,1.6v54.7c0,1.7,3.2,1.8,3.1,0V318.4z M284.6,329.2c0-0.9-0.7-1.6-1.6-1.6
	c-0.9,0-1.6,0.7-1.6,1.6v33.1c0,1.8,3.2,1.8,3.1,0V329.2z M374.3,335c-1.7-3.4-10.7-19.8-31.2-19.8c-1.3,0-2.5-0.7-3.3-1.8
	c-0.7-1.1-0.8-2.5-0.3-3.7l10-22.8c-4.2,4.2-8.3,7.4-12.5,9.7c-16,11.3-30.6,10.6-43,7.1c0,0,0,0-0.1,0c-0.1,0-0.2-0.1-0.2-0.1
	c-5.2-1.5-9.9-3.4-14.3-5.1c-5.9-2.4-11-4.5-14.8-4.5c-3.9,0-8.9,2.1-14.7,4.5c-8.2,3.4-18.1,7.6-29.2,7.6
	c-11.7,0-24.8-4.8-38.9-19.5l10.1,23.1c0.5,1.2,0.4,2.6-0.3,3.7c-0.7,1.1-2,1.8-3.3,1.8c-20.3,0-29.5,16.4-31.2,19.7
	c0.2,3.8,2.3,23.2,20.5,41.4c11,11,25.2,12.1,35.1,11c12.8-1.3,23.3-6.7,27.7-11c2-2,4.1-3.6,6.3-5.2c-4-1.1-7.1-4.6-7.1-8.9v-24.1
	c-3.4,3.3-7.2,6.7-13.2,8.9c5.3,3.8,8.7,9.2,8.7,15.2c0,11.4-11.8,20.6-26.2,20.6c0,0-0.1,0-0.1,0c-0.1,0-0.2,0-0.2,0
	c-8.2,0-15-6.7-15-15c0,0,0,0,0,0l0-2.1c0-7.6-0.1-15.5,4.7-20.3c2.5-2.6,6.1-3.9,10.7-3.9c0.5,0,0.9,0.1,1.3,0.1
	c0.1,0,0.2-0.1,0.3-0.1c14.5,0,19.2-4.7,24.7-10.1c1-1.1,2.1-2.1,3.2-3.1c0.4-0.4,1-0.4,1.5-0.5c0.6-4.7,4.4-8.3,9.2-8.3
	c0.5,0,1,0.2,1.6,0.3v-1.7c0-5.2,4.2-9.4,9.4-9.4c2.1,0,4,0.8,5.6,2c1.6-1.2,3.4-2,5.6-2c5.2,0,9.4,4.2,9.4,9.4v1.9
	c0.8-0.2,1.6-0.5,2.4-0.5c4.9,0,8.7,3.8,9.2,8.5c0.2,0.1,0.5,0.1,0.6,0.2c1.2,1.1,2.3,2.2,3.4,3.3c5.4,5.4,10.1,10.1,24.7,10.1
	c0.1,0,0.1,0.1,0.2,0.1c0.5,0,0.9-0.1,1.3-0.1c4.5,0,8.1,1.3,10.7,3.9c4.8,4.8,4.7,12.7,4.7,20.3l0,2c0,0,0,0,0,0.1
	c0,8.3-6.7,15-15,15c-0.1,0-0.2,0-0.2,0c0,0-0.1,0-0.1,0c-14.5,0-26.2-9.2-26.2-20.6c0-6.1,3.4-11.5,8.7-15.2
	c-5.7-2.1-9.4-5.2-12.6-8.3v23.4c0,4.5-3.3,8.1-7.6,9c2.2,1.5,4.2,3.1,6.1,5.1c4.4,4.4,14.9,9.7,27.7,11c9.9,1.1,24.1,0,35.1-11
	C372,358.2,374.1,338.8,374.3,335z M330,368.1L330,368.1c0-4-3.2-7.2-7.2-7.2c-4,0-7.2,3.2-7.2,7.2c0,4,3.2,7.2,7.2,7.2
	C326.8,375.3,330,372.1,330,368.1C330,368.1,330,368.1,330,368.1z M329.2,354.7c-0.4-1.4-0.8-2.7-1.6-3.4c-1.1-1.1-2.7-1.6-5.1-1.6
	c-10,0-18.4,5.9-18.4,12.8c0,2.9,1.7,5.5,4.2,7.7c-0.1-0.7-0.4-1.4-0.4-2.1c0-8.3,6.7-15,15-15C325.2,353.1,327.3,353.7,329.2,354.7
	z M223.5,368.1c0,0.7-0.3,1.4-0.4,2.1c2.5-2.2,4.2-4.8,4.2-7.7c0-6.9-8.4-12.8-18.4-12.8c-2.4,0-4.1,0.5-5.1,1.6
	c-0.8,0.8-1.3,2-1.6,3.4c1.9-0.9,4.1-1.5,6.3-1.5C216.8,353.1,223.5,359.8,223.5,368.1z M208.6,360.9c-3.9,0-7.1,3.2-7.1,7.1v0l0,0
	c0,3.9,3.2,7.2,7.2,7.2c4,0,7.2-3.2,7.2-7.2C215.7,364.2,212.5,360.9,208.6,360.9z M380.4,281.4c-6.5-6.5-10.4-11.9-12.8-16.2
	l-18.7,42.6c16.5,2.2,25.9,13.2,30.2,19.8C393.9,310.8,394.3,295.3,380.4,281.4z M390.7,270.6c-5.9-6.9-9.6-12.3-12-16.3
	c-1.4,1.8-3.2,3.4-5.6,4.3c1.6,3.6,5.2,9.5,12.8,17.2c6,6,13,15.9,12.3,28.7C405.7,291.1,401.2,282.8,390.7,270.6z M362.9,297.2
	c-2.1-0.4-4.2,1-4.6,3.1c-0.4,2.1,1,4.2,3.1,4.6c5.3,1,10.3,3.3,14.7,6.9c0.7,0.6,1.6,0.9,2.5,0.9c1.1,0,2.3-0.5,3-1.4
	c1.4-1.7,1.1-4.1-0.6-5.5C375.7,301.4,369.6,298.5,362.9,297.2z M362.8,289.5c0,2.2,1.8,3.9,3.9,3.9c4,0,7.7,0.6,11.3,1.9
	c0.4,0.1,0.9,0.2,1.3,0.2c1.6,0,3.1-1,3.7-2.6c0.7-2-0.4-4.3-2.4-5c-4.4-1.5-9-2.3-13.9-2.3C364.6,285.6,362.8,287.3,362.8,289.5z"
	/>
</svg>
