<?xml version="1.0" encoding="utf-8"?>
<!-- Generator: Adobe Illustrator 17.1.0, SVG Export Plug-In . SVG Version: 6.00 Build 0)  -->
<!DOCTYPE svg PUBLIC "-//W3C//DTD SVG 1.1//EN" "http://www.w3.org/Graphics/SVG/1.1/DTD/svg11.dtd">
<svg version="1.1" id="Calque_1" xmlns="http://www.w3.org/2000/svg" xmlns:xlink="http://www.w3.org/1999/xlink" x="0px" y="0px"
	 viewBox="0 0 3000 4000" enable-background="new 0 0 3000 4000" xml:space="preserve">
<g>
	<g>
		<path d="M1925.7,1399.6c-185.6,0-336.6,151-336.6,336.6c0,185.5,150.8,336.4,336.4,336.5c0.1,0,0.1,0.1,0.2,0.1
			c0.1,0,0.1-0.1,0.2-0.1c185.5-0.1,336.4-151,336.4-336.5C2262.2,1550.6,2111.3,1399.6,1925.7,1399.6z M1728.6,1929.8
			c-49.1-49.9-79.4-118.3-79.4-193.7c0-75.4,30.4-143.7,79.4-193.7V1929.8z M1895.7,2011c-38.7-4.2-74.9-16.5-107.1-35v-479.7
			c32.2-18.5,68.4-30.8,107.1-35V1621c-51.3,13.4-89.4,59.7-89.4,115.1c0,55.4,38.1,101.7,89.4,115.1V2011z M1925.7,1795.6
			c-32.8,0-59.4-26.7-59.4-59.4c0-32.7,26.7-59.4,59.4-59.4c32.8,0,59.4,26.7,59.4,59.4C1985.1,1768.9,1958.5,1795.6,1925.7,1795.6z
			 M2073.8,1969.2c-34.9,22.3-75,37-118.1,41.8v-159.7h0.1c51.3-13.4,89.4-59.7,89.4-115.1c0-55.5-38.1-101.8-89.4-115.1v-159.7
			c43.1,4.7,83.2,19.4,118.1,41.7c-0.1,0.7-0.4,1.3-0.4,2v462.3C2073.4,1968,2073.8,1968.6,2073.8,1969.2z M2133.4,1918.1v-363.9
			c42.7,48.7,68.8,112.3,68.8,181.9C2202.2,1805.8,2176.1,1869.4,2133.4,1918.1z M2605.8,1891.2l-75.4-10.8v-53.1h67.8
			c16.6,0,30-13.4,30-30v-361.9c0-16.1-12.7-29.4-28.8-30l-28.1-1.1C2552.2,408.3,1623.8,140,1497.5,140S442.7,408.4,423.6,1404.5
			l-23.1,0.9c-16.1,0.6-28.9,13.9-28.9,30v361.9c0,16.6,13.4,30,30,30h67.9v53.1l-75.4,10.7c-15,2.1-27.9,16.6-25.4,34l51.5,358.2
			c2.2,14.9,16.5,27.8,34,25.4l68-9.8l3.7,120.3h-31.6c-16.6,0-30,13.3-30,30v335.3c0,16.6,13.4,30,30,30h92.6c16.6,0,30-13.4,30-30
			v-30.7h199.1c142,237.9,361.6,356.1,684.1,356.1c316.9,0,542.5-119.2,684.1-356.1h199.1v30.7c0,16.6,13.4,30,30,30h92.6
			c16.6,0,30-13.4,30-30v-335.3c0-16.6-13.4-30-30-30h-31.6l3.8-120.2l67.9,9.8c18.1,2.6,31.9-10.8,34-25.4l51.5-358.2
			C2633.6,1908.8,2622.4,1893.7,2605.8,1891.2z M2568.3,1767.4h-89.9c0-142.4-4.3-221-14.2-307.1l104.1,4V1767.4z M949.2,453.1
			c243.7-189.8,501-253.1,548.3-253.1c47.3,0,304.6,63.3,548.3,253.1c208.1,162,454.6,457.7,465.5,949l-55-2.1
			C2380.1,872.7,2101.4,399,1500,399S620,872.7,543.7,1400l-59.9,2.3C494.6,910.8,741.1,615.1,949.2,453.1z M2418.6,1689.7h-38.6
			c-13.8-275.8-214.7-480.4-479-480.4c-157.6,0-304.4,72.3-400.9,195c-96.5-122.7-243.3-195-401-195c-264.3,0-465.2,204.5-479,480.4
			h-38.6C589.3,1089,833.5,459,1500,459S2410.7,1089,2418.6,1689.7z M431.6,1767.4v-303.1l104.2-4c-9.9,86.1-14.2,164.7-14.2,307.1
			H431.6z M556.8,2754.6h-32.6v-275.3h32.6V2754.6z M546.8,2234.9l-71.4,10.3l-43-298.8l97.8-14.9c10,119.8,27.5,227.5,47.8,320
			C574,2243.3,563.4,2232.7,546.8,2234.9z M616.7,2479.3v-30c0-16.6-13.5-30-30-30h-0.9l-4.7-154.3c19.2,84.7,40.5,156.8,60,214.3
			H616.7z M616.8,2693.8v-154.5h45.8c23.2,61.4,40.7,96.3,42.9,100.7c4.5,8.8,14,16.4,26.7,16.4c0,0,0,0,0,0h32
			c5.9,12.4,12,24.9,18.5,37.4H616.8z M1472.5,3049.2c-382.4-8.1-543.3-196-641.5-392.7h409.1v67.4c0,16.6,13.4,30,30,30h202.4
			L1472.5,3049.2L1472.5,3049.2z M1300.1,2693.9v-101.8h399.8v101.8H1300.1z M1300.1,2532.1v-16.6h399.8v16.6H1300.1z M1532.5,3049
			v-295.1h197.4c16.6,0,30-13.4,30-30v-67.4H2169C2071.1,2852.4,1911.3,3039.4,1532.5,3049z M1759.9,2596.5v-111
			c0-16.6-13.4-30-30-30h-197.4v-119.1c0-40.6-60-40.6-60,0v119.1h-202.4c-16.6,0-30,13.4-30,30v111H751.3
			c-33.4-73.8-164.4-392.2-170-846.9h67.2c0.1,0,0.1,0.1,0.1,0.1c16.6,0,30-13.4,30-30c0-256.8,180.7-450.4,420.3-450.4
			c148.8,0,286.7,72.9,371,195.3v701.9l-148.7,148.7c-30.5,30.5,17.8,67.1,42.4,42.4l136.4-136.3l136.3,136.3
			c24.8,24.8,73.1-11.7,42.4-42.4L1530,2166.5v-701.9c84.4-122.4,222.2-195.3,370.9-195.3c239.6,0,420.4,193.6,420.4,450.4
			c0,16.6,13.4,30,30,30h67.4c-5.6,454.7-136.7,773-170,846.9L1759.9,2596.5L1759.9,2596.5z M2383.1,2693.9h-165.9
			c6.4-12.5,12.6-25,18.4-37.4h32c12.4,0,22.4-7.7,26.8-16.4c2.3-4.4,19.7-39.4,43-100.7h45.7V2693.9z M2414.1,2419.3h-0.9
			c-16.6,0-30,13.4-30,30v30h-24.3c19.5-57.6,40.8-129.6,60.1-214.4L2414.1,2419.3z M2475.7,2479.3v275.3h-32.6v-275.3H2475.7z
			 M2524.6,2245.2l-71.4-10.3c-15.6-2.2-26.9,7.8-31.3,16.6c20.4-92.6,37.9-200.2,47.9-320l97.8,14.9L2524.6,2245.2z M1410.8,1736.2
			c0-185.6-151-336.6-336.6-336.6s-336.6,151-336.6,336.6c0,185.6,151,336.6,336.6,336.6S1410.8,1921.8,1410.8,1736.2z
			 M866.5,1918.1c-42.7-48.8-68.8-112.3-68.8-182c0-69.7,26.1-133.3,68.8-181.9V1918.1z M1044.2,2011
			c-43.2-4.7-83.3-19.4-118.2-41.7c0.1-0.7,0.4-1.3,0.4-2V1505c0-0.7-0.4-1.3-0.4-2c34.9-22.3,75-37,118.2-41.7V1621
			c-51.3,13.4-89.4,59.7-89.4,115.1c0,55.4,38.1,101.7,89.4,115.1V2011z M1014.8,1736.2c0-32.7,26.6-59.4,59.4-59.4
			c32.8,0,59.4,26.7,59.4,59.4c0,32.8-26.6,59.4-59.4,59.4C1041.4,1795.6,1014.8,1768.9,1014.8,1736.2z M1211.3,1976
			c-32.2,18.5-68.4,30.8-107.1,35v-159.7c51.3-13.4,89.4-59.7,89.4-115.1c0-55.4-38.1-101.8-89.4-115.1v-159.7
			c38.7,4.2,74.8,16.5,107.1,35V1976z M1271.3,1542.5c49.1,50,79.5,118.3,79.5,193.7c0,75.4-30.4,143.7-79.5,193.7V1542.5z
			 M1500,392.4c49.6,0,90-41.4,90-92.3s-40.4-92.3-90-92.3s-90,41.4-90,92.3S1450.4,392.4,1500,392.4z M1500,267.7
			c16.5,0,30,14.5,30,32.3c0,17.8-13.4,32.3-30,32.3c-16.5,0-30-14.5-30-32.3C1470,282.2,1483.5,267.7,1500,267.7z"/>
	</g>
</g>
</svg>
