<?xml version="1.0" encoding="utf-8"?>
<!-- Generator: Adobe Illustrator 17.1.0, SVG Export Plug-In . SVG Version: 6.00 Build 0)  -->
<!DOCTYPE svg PUBLIC "-//W3C//DTD SVG 1.1//EN" "http://www.w3.org/Graphics/SVG/1.1/DTD/svg11.dtd">
<svg version="1.1" id="Calque_1" xmlns="http://www.w3.org/2000/svg" xmlns:xlink="http://www.w3.org/1999/xlink" x="0px" y="0px"
	 viewBox="0 0 512 512" enable-background="new 0 0 512 512" xml:space="preserve">
<g>
	<g>
		<path d="M288.8,255.1c25.9,13.4,54.2,12.4,76.9,2.8c5.4-2.3,8.9-7.5,8.9-13.4c0-45.4-54.9-68.1-87-36.1c-0.7,0.7-1,1.6-1,2.5
			L287,252C287,253.3,287.7,254.5,288.8,255.1z M367.6,244.5c0,3-1.8,5.7-4.6,6.9c-22.2,9.4-46.7,9.3-69-1.6l-0.3-37.4
			C322.1,185.9,367.6,206.4,367.6,244.5z M259.7,217.7H280c4.6,0,4.6-7.1,0-7.1h-20.3C255,210.7,255,217.7,259.7,217.7z
			 M259.7,238.9H280c4.6,0,4.6-7.1,0-7.1h-20.3C255,231.9,255,238.9,259.7,238.9z M360.9,329l6.7-45.5c8.4-8.6,14-19.7,15.8-31.5
			c0.7-4.6-6.3-5.6-7-1.1c-1.5,10.1-6.3,19.7-13.4,27.1l-69.5-13.5c-3.5-0.7-4.6,3.3-3.9,4.9l7.1,16.5c0.2,0.4,0.4,0.8,0.8,1.1
			l44.4,44.1l-8.5,15.5l-44.1-59.2l-2.5-16.7c-2.9-19.6-31.2-19.6-34.1,0l-2.5,16.7l-44.1,59.2l-8.5-15.5l44.4-44.1
			c0.3-0.3,0.6-0.7,0.8-1.1l7.1-16.5c1.1-2.6-1.1-5.4-3.9-4.9l-69.5,13.5c-7.2-7.5-11.8-16.8-13.4-27.1c-0.7-4.5-7.7-3.5-7,1.1
			c1.8,12,7.3,22.8,15.8,31.5l6.7,45.5c0.7,4.7,7.7,3.6,7-1l-6.4-43.3l61.5-11.9l-4.2,9.7L190.8,328c-1.1,1.1-1.4,2.8-0.6,4.2
			l8.7,15.7c-7.1,1-10.4,6.8-10.7,11.6l-20.5-11.2c-4.1-2.3-7.5,3.9-3.4,6.2l30.2,16.5c0,0,0,0,0,0c4.9,2.7,12,2.1,16.1-3.7H329
			c3.9,5.6,11.2,6.4,16,3.8c0,0,0,0,0,0l30.2-16.5c4.1-2.2,0.7-8.4-3.4-6.2l-20.5,11.2c-0.3-6.2-4.5-10.7-10.6-11.6l8.7-15.7
			c0.8-1.4,0.5-3.1-0.6-4.2L303,282.5l-4.2-9.7l61.5,11.9l-6.4,43.3C353.3,332.6,360.3,333.7,360.9,329z M200.5,365.5
			c-2.9,0-5.3-2.4-5.3-5.3c0-2.9,2.4-5.3,5.3-5.3c2.9,0,5.3,2.4,5.3,5.3C205.8,363.1,203.5,365.5,200.5,365.5z M259.8,271.7
			c1.7-11.5,18.4-11.5,20.1,0l2.1,14.2c-10.8,1.5-13.5,1.5-24.2,0L259.8,271.7z M326.8,360.2H306c0,0,0-31.7,0-31.7
			c0-4.6-7.1-4.6-7.1,0c0,0,0,31.7,0,31.7h-15.5c0,0,0-59.3,0-59.3c0-4.7-7.1-4.7-7.1,0c0,0,0,59.3,0,59.3h-13.2c0,0,0-59.3,0-59.3
			c0-4.6-7.1-4.6-7.1,0c0,0,0,59.3,0,59.3h-15.5c0,0,0-31.7,0-31.7c0-4.7-7.1-4.7-7.1,0c0,0,0,31.7,0,31.7h-20.8
			c0-2.6-0.8-5.2-2.4-7.4l44.9-60.2c10.3,1.6,18.7,1.6,29.1,0l44.9,60.2C327.4,355.2,326.8,357.6,326.8,360.2z M344.4,360.2
			c0,2.9-2.4,5.3-5.3,5.3c-2.9,0-5.3-2.4-5.3-5.3c0-2.9,2.4-5.3,5.3-5.3C342,354.9,344.4,357.2,344.4,360.2z M434.1,363.9
			l-41.4-150.8c-2.5-9.1-4-15.3-4-23.7c0-57-46-103.5-102.8-104.3l-3.4-3.4c-0.7-0.7-1.6-1-2.5-1h-20.3c-0.9,0-1.8,0.4-2.5,1
			l-3.4,3.4c-56.8,0.8-102.8,47.3-102.8,104.3c0,8.4-1.5,14.5-4,23.7v0l-41.4,150.8c-0.4,1.6,0.3,3.2,1.6,4
			c21.9,12.6,45.2,22.6,69.4,29.8l7.6,20.6c0.4,1.1,1.3,1.9,2.3,2.2c50.1,14.4,116.5,14.4,166.6,0c1.1-0.3,2-1.1,2.3-2.2l7.6-20.6
			c24.1-7.2,47.5-17.2,69.4-29.8C433.8,367.1,434.5,365.5,434.1,363.9z M283.5,187.6c35.7-33.5,83.8-15.5,99,18.2l0,0
			c-24.2-25.9-65.7-32-96.7-7.3c-0.8-0.6-1.6-1.2-2.3-1.7L283.5,187.6L283.5,187.6z M158,190.5c0-53.6,43.7-98.2,97.3-98.2
			c0.9,0,1.8-0.4,2.5-1l3.4-3.4h17.4l3.4,3.4c0.7,0.7,1.6,1,2.5,1c53.6,0,97.3,44.7,97.3,98.3c0,0.2,0,0.1,0,0c0,0,0,0,0,0
			c-16.5-27.3-67.1-40-98.1-12.3V99.8c0-4.7-7.1-4.7-7.1,0v95.3h-13.2V99.8c0-4.7-7.1-4.7-7.1,0v78.6
			C225.1,150.6,174.5,163.3,158,190.5L158,190.5L158,190.5z M256.1,187.7v9.2l-2.3,1.7c-31.9-25.5-73.2-17.9-96.7,7.3
			C172.3,172.1,220.5,154.2,256.1,187.7z M359.4,391.4c-1.1,0.3-1.9,1.1-2.3,2.2l-7.6,20.6c-47.9,13.3-111.4,13.3-159.3,0l-7.6-20.6
			c-0.4-1.1-1.3-1.9-2.3-2.2c-23.4-6.8-45.9-16.3-67.2-28.3l36-131.4c15.9-42.2,68.6-55.2,102.3-26.1c1.3,1.1,3.1,1.2,4.4,0.2l5-3.8
			h18l0,0l5,3.7c1.3,1,3.2,0.9,4.4-0.2c33.2-28.7,86.2-16.8,102.3,26.1l36,131.4C405.3,375.1,382.7,384.6,359.4,391.4z M316,375.4
			C316,375.4,315.9,375.4,316,375.4c-18.8,0.5-73.8,0.5-92.3,0c0,0-0.1,0-0.1,0c-3.5,0-4.8,4.6-2,6.5l31.5,21.1
			c9.5,6.4,23.7,6.4,33.3,0l31.5-21.1C321,379.9,319.3,375.4,316,375.4z M282.5,397.1c-7,4.7-18.4,4.7-25.4,0l-21.4-14.3
			c23.7,0.5,44.5,0.5,68.3,0L282.5,397.1z M259.7,228.3H280c4.6,0,4.6-7.1,0-7.1h-20.3C255,221.3,255,228.3,259.7,228.3z
			 M173.9,257.9c22.7,9.6,51,10.7,76.9-2.8c1.2-0.6,1.9-1.8,1.9-3.1L253,211c0-0.9-0.4-1.9-1-2.5c-32-31.9-87-9.2-87,36.1
			C165,250.4,168.5,255.7,173.9,257.9z M245.9,212.4l-0.3,37.4c-22.3,10.9-46.9,11-69,1.6c-2.8-1.2-4.6-3.9-4.6-6.9
			C172,206.4,217.5,185.9,245.9,212.4z"/>
	</g>
</g>
</svg>
