<?xml version="1.0" encoding="utf-8"?>
<!-- Generator: Adobe Illustrator 17.1.0, SVG Export Plug-In . SVG Version: 6.00 Build 0)  -->
<!DOCTYPE svg PUBLIC "-//W3C//DTD SVG 1.1//EN" "http://www.w3.org/Graphics/SVG/1.1/DTD/svg11.dtd">
<svg version="1.1" id="Calque_1" xmlns="http://www.w3.org/2000/svg" xmlns:xlink="http://www.w3.org/1999/xlink" x="0px" y="0px"
	 viewBox="0 0 3000 4000" enable-background="new 0 0 3000 4000" xml:space="preserve">
<path d="M2282.6,2389.4c-218.9-563.6-291.9-1445.6-309-1702.4c-4-59.8-54.1-106.6-114.2-106.6h-761c-60,0-110.2,46.8-114.2,106.6
	c-17.2,256.9-90.2,1139-309,1702.4c-13.4,34.6-11.4,73.5,5.5,106.8c17.2,33.7,48,58.6,84.7,68.2l185.4,48.8
	c61.1,16,125.4-13.5,152.9-70.2c89.2-184.1,287.3-629.2,375.2-1117.5c87.9,488.2,285.9,933.5,375.1,1117.5
	c22.5,46.3,69.5,74.5,119.3,74.5c11.2,0,22.5-1.4,33.6-4.4l185.4-48.8c60.8-16,102.4-72.9,98.9-135.2
	C2290.5,2415.6,2287.5,2402.2,2282.6,2389.4C2282.6,2389.4,2282.6,2389.4,2282.6,2389.4z M1733.9,765.2H1919
	c7.2,95.4,19.1,230.8,37.4,388.2c-95-31.4-182.8-180.6-209.6-230.1c-8.5-15.6-12.9-33.3-12.9-51.3V765.2z M1913.7,691
	c0.3,4.4,0.6,9.5,1,14.2h-405.8v-64.8h350.5C1887.9,640.4,1911.8,662.6,1913.7,691z M1098.4,640.4h350.5v64.8h-405.8
	c0.3-4.8,0.7-9.8,1-14.2C1046,662.6,1069.8,640.4,1098.4,640.4z M1038.8,765.2h185.1v106.7c0,18-4.5,35.7-12.9,51.3
	c-26.9,49.5-114.6,198.7-209.7,230.1C1019.6,996,1031.5,860.6,1038.8,765.2z M2177.1,2506.4l-185.4,48.8
	c-33.5,8.8-68.6-7.3-83.6-38.3c-100.4-207-340.2-748.6-399.3-1304.7c-1.6-15.2-14.5-26.8-29.8-26.8s-28.2,11.6-29.8,26.8
	c-59.2,556.2-299,1097.7-399.3,1304.7c-15,31-50.3,47.1-83.6,38.3l-185.4-48.8c-20.1-5.3-37.1-19-46.5-37.5
	c-9.3-18.3-10.4-38.8-3-57.8c136.4-351.3,216.8-822.6,262.5-1194c120-20.3,219.5-172.2,270-265.3c13.2-24.3,20.2-52,20.2-79.9V765.2
	h165v230.2c0,16.6,13.4,30,30,30s30-13.4,30-30V765.2h165v106.7c0,27.9,7,55.6,20.2,79.9c50.5,93.2,150,245,270,265.3
	c45.7,371.3,126.1,842.7,262.6,1194c2.7,6.9,4.3,14.2,4.7,21.5C2233.3,2466.6,2210.5,2497.6,2177.1,2506.4z"/>
</svg>
