<?xml version="1.0" encoding="utf-8"?>
<!-- Generator: Adobe Illustrator 17.1.0, SVG Export Plug-In . SVG Version: 6.00 Build 0)  -->
<!DOCTYPE svg PUBLIC "-//W3C//DTD SVG 1.1//EN" "http://www.w3.org/Graphics/SVG/1.1/DTD/svg11.dtd">
<svg version="1.1" id="Calque_1" xmlns="http://www.w3.org/2000/svg" xmlns:xlink="http://www.w3.org/1999/xlink" x="0px" y="0px"
	 viewBox="0 0 3000 4000" enable-background="new 0 0 3000 4000" xml:space="preserve">
<path d="M-87,3133c219,36,444,54,663,54c12,0,24,0,36,0c234-3,468-24,702-66l0,0c171-33,339-198,375-369c42-210,63-426,63-636
	s-21-426-63-636c-36-168-204-333-375-366c-231-42-468-66-702-66c-234-3-468,15-702,54c-171,30-342,195-378,369
	c-42,216-63,432-63,648s21,432,63,651C-429,2938-261,3103-87,3133z M-258,1510c18-87,120-189,207-204c210-33,420-51,630-51
	c12,0,24,0,36,0c222,3,444,24,663,63c87,18,192,117,207,201c39,198,57,399,57,597c0,198-18,399-57,594c-18,84-120,186-207,204
	c-219,39-444,63-663,63c-222,3-444-15-663-51c-87-15-189-117-207-201c-39-201-60-408-60-609C-315,1915-297,1711-258,1510z"/>
<path d="M138,2689c21,18,45,27,72,27s57-12,78-33c78-84,204-150,348-180c18-3,33-6,51-9c51,204,198,375,330,342
	c132-33,201-216,156-420v-3c0-3,0-6-3-9l0,0c-9-30-27-54-57-69c-147-66-330-81-519-42c-186,39-351,126-459,243
	C93,2584,96,2650,138,2689z"/>
<path d="M921,1828l-36,42c-39,45-33,111,12,147c21,18,45,24,69,24c30,0,60-12,81-36l36-42l42,36c21,18,45,24,69,24c30,0,60-12,81-36
	c39-45,33-111-12-147l-42-36l36-42c39-45,33-111-12-147c-45-39-111-33-147,12l-36,42l-42-36c-45-39-111-33-147,12
	c-39,45-33,111,12,147L921,1828z"/>
<path d="M27,1828l-36,42c-39,45-33,111,12,147c21,18,45,24,69,24c30,0,60-12,81-36l36-42l42,36c21,18,45,24,69,24c30,0,60-12,81-36
	c39-45,33-111-12-147l-42-36l36-42c39-45,33-111-12-147c-45-39-111-33-147,12l-36,42l-42-36c-45-39-111-33-147,12
	c-39,45-33,111,12,147L27,1828z"/>
</svg>
