<?xml version="1.0" encoding="utf-8"?>
<!-- Generator: Adobe Illustrator 17.1.0, SVG Export Plug-In . SVG Version: 6.00 Build 0)  -->
<!DOCTYPE svg PUBLIC "-//W3C//DTD SVG 1.1//EN" "http://www.w3.org/Graphics/SVG/1.1/DTD/svg11.dtd">
<svg version="1.1" id="Calque_1" xmlns="http://www.w3.org/2000/svg" xmlns:xlink="http://www.w3.org/1999/xlink" x="0px" y="0px"
	 viewBox="0 0 512 512" enable-background="new 0 0 512 512" xml:space="preserve">
<g>
	<path d="M250.4,102.5h-7.5v7.5v30.1v7.5h7.5h30.1h7.5v-7.5V110v-7.5h-7.5H250.4z M280.5,140.1h-30.1V110h30.1V140.1z"/>
	<path d="M265.5,136.3c6.2,0,11.3-5.1,11.3-11.3c0-6.2-5.1-11.3-11.3-11.3s-11.3,5.1-11.3,11.3C254.2,131.3,259.2,136.3,265.5,136.3
		z M265.5,121.3c2.1,0,3.8,1.7,3.8,3.8s-1.7,3.8-3.8,3.8s-3.8-1.7-3.8-3.8S263.4,121.3,265.5,121.3z"/>
	<path d="M265.5,309.3c-8.3,0-15,6.7-15,15s6.7,15,15,15s15-6.7,15-15S273.8,309.3,265.5,309.3z M265.5,331.9
		c-4.1,0-7.5-3.4-7.5-7.5c0-4.1,3.4-7.5,7.5-7.5s7.5,3.4,7.5,7.5C273,328.5,269.6,331.9,265.5,331.9z"/>
	<path d="M308.3,132.6c-7.3,0-13.2,5.9-13.2,13.2s5.9,13.2,13.2,13.2c7.3,0,13.2-5.9,13.2-13.2S315.6,132.6,308.3,132.6z
		 M308.3,151.4c-3.1,0-5.6-2.5-5.6-5.6s2.5-5.6,5.6-5.6s5.6,2.5,5.6,5.6S311.4,151.4,308.3,151.4z"/>
	<path d="M408.4,392.1h-15v-3.8h5.6v-7.5v-0.2c5.3-0.9,9.4-5.5,9.4-11.1c0-5-3.3-9.2-7.8-10.7l7.8-15.6v-22.6h-7.5V268h7.5v-90.3
		H367v7.5h-7.5v-7.5v-7.5v-7.5c0-51.9-42.1-94-94-94c-51.9,0-94,42.1-94,94v7.5v7.5v7.5h-7.5v-7.5h-41.4V268h7.5v52.7h-7.5v22.6
		l7.8,15.6c-4.5,1.5-7.8,5.7-7.8,10.7c0,5.6,4.1,10.2,9.4,11.1v0.2v7.5h5.6v3.8h-15l-7.5,28.2v13.2h71.5v-15l-1.4-5
		c0.9-1.9,1.4-4,1.4-6.3v-33.8c0-8.3-6.7-15-15-15c-2.7,0-5.3,0.8-7.5,2.1v-2.1v-30.1v-7.5V268v-7.5v-15h7.5v105.3h10.6l1.3,3
		l11.3,26.3l2,4.6h5h34.5c-0.4,1.2-0.7,2.4-0.7,3.8c0,6.2,5.1,11.3,11.3,11.3c0,0,0,0,0,0h5.6v3.8h-16.9l-7.5,28.2v13.2h75.2v-15
		l-7.5-26.3h-16.9v-3.8h5.6c0,0,0,0,0,0c6.2,0,11.3-5.1,11.3-11.3c0-1.3-0.3-2.6-0.7-3.8h34.5h5l2-4.6l11.3-26.3l1.3-3h10.6V245.4
		h7.5v15v7.5v52.7v7.5v30.1v2.1c-2.2-1.3-4.8-2.1-7.5-2.1c-8.3,0-15,6.7-15,15v33.8c0,2.5,0.7,4.7,1.7,6.8l-1.7,6.4v13.2h71.5v-15
		L408.4,392.1z M374.5,392.1v-3.8h11.3v3.8v15h-11.3V392.1z M374.5,373.3v-7.5h12c-0.2,0.6-0.4,1.2-0.5,1.8c-0.1,0.6-0.2,1.3-0.2,2
		c0,0.7,0.1,1.3,0.2,2c0,0.2,0.1,0.4,0.1,0.6c0.1,0.5,0.3,1,0.5,1.5c0.1,0.3,0.2,0.5,0.3,0.8c0.2,0.4,0.4,0.7,0.6,1.1
		c0.2,0.3,0.4,0.6,0.6,0.9c0.1,0.1,0.2,0.3,0.4,0.4c0.5,0.6,1.1,1.2,1.8,1.7c0,0,0,0,0,0c0.4,0.3,0.8,0.6,1.2,0.8c0,0,0,0,0,0v1.6
		h-5.6h-11.3V373.3z M400.8,369.5c0,2.1-1.7,3.8-3.8,3.8c-0.5,0-1-0.1-1.4-0.3l-0.2-0.1c-0.2-0.1-0.3-0.2-0.4-0.3
		c-0.3-0.2-0.6-0.5-0.9-0.8c-0.2-0.2-0.3-0.4-0.4-0.6c-0.1-0.1-0.1-0.3-0.2-0.4c-0.1-0.4-0.3-0.8-0.3-1.3c0-0.3,0.1-0.8,0.3-1.2
		l0.1-0.3c0.6-1.3,1.9-2.2,3.4-2.2C399.2,365.7,400.8,367.4,400.8,369.5z M351.2,151.4h-19.8v-11.3h17.5
		C349.9,143.8,350.7,147.5,351.2,151.4z M276.7,76.9c13.7,1.8,26.5,6.8,37.4,14.3h-37.4V76.9z M254.2,76.9v14.3h-37.4
		C227.7,83.7,240.4,78.7,254.2,76.9z M182,140.1h43.9v11.3h-46.1C180.2,147.5,181,143.8,182,140.1z M179,158.9h54.3v-26.3h-49
		c4.9-13.2,13-24.9,23.2-34.1c0.4,0.2,0.9,0.3,1.5,0.3h52.7V76.3c1.2-0.1,2.5-0.1,3.8-0.1s2.5,0,3.8,0.1v22.5h54.4
		c10.1,9.2,18,20.8,22.9,33.8h-22.6v26.3h28c0,1.2,0.1,2.5,0.1,3.8H179C179,161.4,179,160.2,179,158.9z M179,170.2h173v7.5H179
		V170.2z M156.4,373.3v7.5h-11.3h-5.6v-1.6c0,0,0,0,0,0c0.4-0.2,0.8-0.5,1.2-0.8c0,0,0,0,0,0c0.7-0.5,1.3-1.1,1.8-1.7
		c0.1-0.1,0.2-0.3,0.4-0.4c0.2-0.3,0.4-0.6,0.6-0.9c0.2-0.3,0.4-0.7,0.6-1.1c0.1-0.2,0.2-0.5,0.3-0.8c0.2-0.5,0.3-1,0.5-1.5
		c0-0.2,0.1-0.4,0.1-0.6c0.1-0.7,0.2-1.3,0.2-2c0-0.7-0.1-1.3-0.2-2c-0.1-0.6-0.3-1.2-0.5-1.8h12V373.3z M130.1,369.5
		c0-2.1,1.7-3.8,3.8-3.8c1.5,0,2.8,0.9,3.4,2.2l0.1,0.3c0.2,0.5,0.3,0.9,0.3,1.2c0,0.4-0.1,0.9-0.3,1.3c-0.1,0.1-0.1,0.3-0.2,0.4
		c-0.1,0.2-0.3,0.4-0.4,0.6c-0.2,0.3-0.5,0.6-0.8,0.8c-0.1,0.1-0.3,0.2-0.4,0.3l-0.2,0.1c-0.4,0.2-0.9,0.3-1.4,0.3
		C131.7,373.3,130.1,371.6,130.1,369.5z M145.1,388.3h11.3v3.8v15h-11.3v-15V388.3z M179,425.9h-56.4v-4.7l5.8-21.7h9.3v7.5v7.5h7.5
		h11.3h2c0.1,0.2,0.3,0.4,0.4,0.6c0.1,0.2,0.2,0.4,0.4,0.5c0.5,0.7,1,1.4,1.6,2c0,0,0.1,0.1,0.1,0.1c0.6,0.6,1.2,1.1,1.9,1.5
		c0.2,0.1,0.4,0.3,0.5,0.4c0.7,0.5,1.5,0.9,2.3,1.2c0,0,0.1,0,0.1,0c0.8,0.3,1.6,0.6,2.4,0.8c0.2,0,0.4,0.1,0.7,0.1
		c0.9,0.2,1.8,0.3,2.7,0.3c0.9,0,1.8-0.1,2.7-0.3c0.2,0,0.4-0.1,0.6-0.1c0.9-0.2,1.7-0.4,2.5-0.8c0.1,0,0.1,0,0.1-0.1
		c0.5-0.2,1.1-0.5,1.6-0.8V425.9L179,425.9z M171.4,365.7c4.1,0,7.5,3.4,7.5,7.5v18.8v15c0,4.1-3.4,7.5-7.5,7.5
		c-4.1,0-7.5-3.4-7.5-7.5v0v-15v-3.8v0v-7.5v0v-7.5C163.9,369.1,167.3,365.7,171.4,365.7z M156.4,358.2h-12h-5.9l-8.4-16.8v-13.3
		h26.3V358.2z M156.4,320.6h-18.8V268h18.8V320.6z M156.4,260.4h-26.3v-75.2h26.3v7.5v45.1v7.5V260.4z M163.9,237.9v-45.1h7.5v45.1
		H163.9z M190.2,350.7h10.9l8,26.3h-7.6L190.2,350.7z M284.3,377v-26.3h37.7l-8,26.3H284.3z M273.7,392.1h-2.6h-11.3h-2.6
		c0.4-1.2,0.7-2.4,0.7-3.8s-0.3-2.6-0.7-3.8h16.4c-0.4,1.2-0.7,2.4-0.7,3.8S273.2,390.9,273.7,392.1z M276.7,377h-22.6v-26.3h22.6
		V377z M246.6,377H217l-8-26.3h37.7V377z M250.4,388.3c0,2.1-1.7,3.7-3.7,3.8h0c0,0,0,0,0,0c-2.1,0-3.7-1.7-3.7-3.8s1.7-3.8,3.8-3.8
		S250.4,386.2,250.4,388.3z M289.9,410.9l5.7,19.9v6.5h-60.2v-4.7l5.8-21.7h11.1v7.5v7.5h7.5h11.3h7.5v-7.5v-7.5H289.9z
		 M271.1,403.4v15h-11.3v-15v-3.8h11.3V403.4z M288,388.3c0,2.1-1.7,3.8-3.7,3.8c0,0,0,0,0,0h0c-2.1,0-3.7-1.7-3.7-3.8
		c0-2.1,1.7-3.8,3.8-3.8S288,386.2,288,388.3z M329.4,377h-7.6l8-26.3h10.9L329.4,377z M351.9,343.2h-11.3H190.2H179v-97.8v-7.5
		v-45.1v-7.5h173v7.5v45.1v7.5V343.2z M359.5,237.9v-45.1h7.5v45.1H359.5z M374.5,245.4v-7.5v-45.1v-7.5h26.3v75.2h-26.3V245.4z
		 M374.5,268h18.8v52.7h-18.8V268z M374.5,328.1h26.3v13.3l-8.4,16.8h-5.9h-12V328.1z M351.9,373.3c0-4.1,3.4-7.5,7.5-7.5
		c4.1,0,7.5,3.4,7.5,7.5v7.5v0v7.5v0v3.8v15v0c0,4.1-3.4,7.5-7.5,7.5c-4.1,0-7.5-3.4-7.5-7.5v-15V373.3z M408.4,425.9h-56.4v-4.7
		l0.3-1c0.4,0.2,0.8,0.4,1.1,0.5c0.1,0.1,0.2,0.1,0.4,0.2c0.8,0.3,1.6,0.6,2.5,0.8c0.2,0,0.4,0.1,0.6,0.1c0.9,0.2,1.8,0.3,2.7,0.3
		c0.9,0,1.8-0.1,2.7-0.3c0.2,0,0.4-0.1,0.7-0.1c0.8-0.2,1.7-0.4,2.4-0.8c0,0,0.1,0,0.1,0c0.8-0.3,1.5-0.8,2.3-1.2
		c0.2-0.1,0.4-0.2,0.5-0.4c0.7-0.5,1.3-1,1.9-1.5c0,0,0.1-0.1,0.1-0.1c0.6-0.6,1.1-1.3,1.6-2c0.1-0.2,0.2-0.4,0.4-0.5
		c0.1-0.2,0.3-0.4,0.4-0.6h2h11.3h7.5v-7.5v-7.5h9.4l5.7,19.9V425.9z"/>
	<path d="M220.3,207.8h90.3V189h-90.3V207.8z M227.8,196.5h75.2v3.8h-75.2V196.5z"/>
	<path d="M295.5,211.6h-45.1v1.9l-15-1.9l-15,1.9v15l15,1.9l15-1.9v1.9h45.1l7.5-1.9h7.5v-15h-7.5L295.5,211.6z M249.5,221
		l-14.1,1.8l-7.5-0.9v-1.8l7.5-0.9l14.1,1.8l0.5,0.1L249.5,221z M301.2,221.2l-6.6,1.7h-36.7V220v-0.9h36.7l6.6,1.7l0.9,0.2
		L301.2,221.2z"/>
	<path d="M280.5,236v-1.9h-45.1l-7.5,1.9h-7.5v15h7.5l7.5,1.9h45.1V251l15,1.9l15-1.9v-15l-15-1.9L280.5,236z M273,244.5v0.9h-36.7
		l-6.6-1.7l-0.9-0.2l0.9-0.2l6.6-1.7H273V244.5z M303.1,244.4l-7.5,0.9l-14.1-1.8l-0.5-0.1l0.5-0.1l14.1-1.8l7.5,0.9V244.4z"/>
	<path d="M250.4,305.6h30.1v-48.9h-30.1V305.6z M257.9,264.2h15v33.8h-15V264.2z"/>
	<path d="M331.8,309.3l-6.6,8.8v12.5l6.6,8.8h9.3l6.6-8.8v-12.5l-6.6-8.8H331.8z M340.3,328.1l-2.9,3.8h-1.8l-2.9-3.8v-7.4l2.9-3.8
		h1.8l2.9,3.8L340.3,328.1L340.3,328.1z"/>
	<path d="M220.3,298.1h-15.8c-2.1,0-3.8,1.7-3.8,3.8c0,2.1,1.7,3.8,3.8,3.8h15.8c2.1,0,3.8-1.7,3.8-3.8
		C224.1,299.7,222.4,298.1,220.3,298.1z"/>
	<path d="M171.4,401.9c2.1,0,3.8-1.7,3.8-3.8v-15.9c0-2.1-1.7-3.8-3.8-3.8c-2.1,0-3.8,1.7-3.8,3.8v15.9
		C167.7,400.2,169.4,401.9,171.4,401.9z"/>
	<path d="M359.5,401.9c2.1,0,3.8-1.7,3.8-3.8v-15.9c0-2.1-1.7-3.8-3.8-3.8c-2.1,0-3.8,1.7-3.8,3.8v15.9
		C355.7,400.2,357.4,401.9,359.5,401.9z"/>
	<path d="M220.3,286.8h-15.8c-2.1,0-3.8,1.7-3.8,3.8c0,2.1,1.7,3.8,3.8,3.8h15.8c2.1,0,3.8-1.7,3.8-3.8
		C224.1,288.5,222.4,286.8,220.3,286.8z"/>
	<path d="M220.3,275.5h-15.8c-2.1,0-3.8,1.7-3.8,3.8c0,2.1,1.7,3.8,3.8,3.8h15.8c2.1,0,3.8-1.7,3.8-3.8
		C224.1,277.2,222.4,275.5,220.3,275.5z"/>
	<path d="M220.3,264.2h-15.8c-2.1,0-3.8,1.7-3.8,3.8c0,2.1,1.7,3.8,3.8,3.8h15.8c2.1,0,3.8-1.7,3.8-3.8
		C224.1,265.9,222.4,264.2,220.3,264.2z"/>
</g>
</svg>
