<?xml version="1.0" encoding="utf-8"?>
<!-- Generator: Adobe Illustrator 17.1.0, SVG Export Plug-In . SVG Version: 6.00 Build 0)  -->
<!DOCTYPE svg PUBLIC "-//W3C//DTD SVG 1.1//EN" "http://www.w3.org/Graphics/SVG/1.1/DTD/svg11.dtd">
<svg version="1.1" id="Calque_1" xmlns="http://www.w3.org/2000/svg" xmlns:xlink="http://www.w3.org/1999/xlink" x="0px" y="0px"
	 viewBox="0 0 512 512" enable-background="new 0 0 512 512" xml:space="preserve">
<g>
	<path d="M426,391.9l-5.8-5.8l6.3-31.5l-60.9-60.9l28.9-28.9v-17.8l-28.9-28.9h-17.8l-10,10l-35.7-35.7l-31.5,6.3L193,121.2
		l-12.6,12.6l-22.6-22.6l8.2-8.2c2.5,1.2,5.2,1.9,8.1,1.9c10.4,0,18.9-8.5,18.9-18.9s-8.5-18.9-18.9-18.9
		c-10.4,0-18.9,8.5-18.9,18.9c0,2.9,0.7,5.6,1.9,8.1l-8.2,8.2l-13.1-13.1l0.5-0.5V77.1l-16.3-16.3h-11.5L79.7,89.7v11.5L96,117.5
		h11.5l0.5-0.5l47.1,47.1c-0.6,13.6-6.1,26.4-15.8,36.1l-5.5,5.5l66.1,66.1L149,322.7v17.8l22.6,22.6h17.8l50.9-50.9l13.5,13.5
		c-12.1,16.4-10.7,39.6,4.1,54.5l1.2,1.2c-6.8,4.5-14.7,6.9-23.1,6.9c-5,0-9.8,2-13.4,5.5c-7.4,7.4-7.4,19.3,0,26.7l24.4,24.4
		c4.1,4.1,9.5,6.3,15.2,6.3c5.7,0,11.1-2.2,15.2-6.3l47.8-47.8l47.8,47.8c4.1,4.1,9.5,6.3,15.2,6.3c5.7,0,11.1-2.2,15.2-6.3
		l22.6-22.6c4.1-4.1,6.3-9.5,6.3-15.2S430.1,396,426,391.9z M174.1,79.7c3.5,0,6.3,2.8,6.3,6.3s-2.8,6.3-6.3,6.3
		c-3.5,0-6.3-2.8-6.3-6.3S170.7,79.7,174.1,79.7z M384.5,394.5l13.1-13.1l8.4,8.4l-13.1,13.1L384.5,394.5z M371.5,355.2l-13.1,13.1
		l-8.4-8.4l13.1-13.1L371.5,355.2z M380.4,364.1l8.4,8.4l-13.1,13.1l-8.4-8.4L380.4,364.1z M409.5,375.5l-105-105l-8.9,8.9
		l58.5,58.5L341,351L236.6,246.6l32-32l144.3,144.3L409.5,375.5z M353.1,230.8h7.4l21.5,21.5v7.4l-25.2,25.2L327.9,256L353.1,230.8z
		 M298,206.2l30.9,30.9l-10,10l-37.6-37.6L298,206.2z M101.2,104.9L92.3,96v-1.1l21.5-21.5h1.1l8.9,8.9v1.1l-21.5,21.5H101.2z
		 M126.9,98l44.6,44.6l-10,10L116.9,108L126.9,98z M167.8,164.2L193,139l10,10l-14.4,14.4l8.9,8.9l14.4-14.4l10,10l-14.4,14.4
		l8.9,8.9l14.4-14.4l10,10l-14.4,14.4l8.9,8.9l14.4-14.4l10,10l-54.1,54.1l-54.2-54.2C161.5,194,167.2,179.5,167.8,164.2z
		 M184.1,350.4h-7.4l-15.2-15.2v-7.4l47.2-47.2l6.8,6.8l-33.3,33.3l8.9,8.9l33.3-33.3l6.8,6.8L184.1,350.4z M262.8,334.7l22.1,22.1
		L268.6,373l-1.8-1.8C256.9,361.3,255.6,346,262.8,334.7z M268.6,436c-3.4,3.4-9.2,3.4-12.6,0l-24.4-24.4c-2.5-2.5-2.5-6.4,0-8.9
		c1.2-1.2,2.8-1.8,4.5-1.8c14.6,0,28.2-5.7,38.5-16l19.2-19.2l22.6,22.6L268.6,436z M381.9,436L214.5,268.6l13.1-13.1l173.7,173.7
		l-6.8,6.8C391.2,439.4,385.3,439.4,381.9,436z M417.1,413.4l-6.8,6.8l-8.4-8.4l13.1-13.1l2.1,2.1c1.7,1.7,2.6,3.9,2.6,6.3
		S418.8,411.7,417.1,413.4z"/>
	<rect x="350.4" y="249.7" width="12.6" height="12.6"/>
</g>
</svg>
