<?xml version="1.0" encoding="utf-8"?>
<!-- Generator: Adobe Illustrator 17.1.0, SVG Export Plug-In . SVG Version: 6.00 Build 0)  -->
<!DOCTYPE svg PUBLIC "-//W3C//DTD SVG 1.1//EN" "http://www.w3.org/Graphics/SVG/1.1/DTD/svg11.dtd">
<svg version="1.1" id="Calque_1" xmlns="http://www.w3.org/2000/svg" xmlns:xlink="http://www.w3.org/1999/xlink" x="0px" y="0px"
	 viewBox="0 0 512 512" enable-background="new 0 0 512 512" xml:space="preserve">
<g>
	<g>
		<path d="M361.7,101.8"/>
	</g>
	<g>
		<path d="M361.7,131.2"/>
	</g>
	<g>
		<path d="M231.9,230c-0.4,0-0.9-0.1-1.3-0.2c-2.4-0.7-3.8-3.2-3.1-5.7l14.3-48.7c-1.4-0.7-3.4-1.6-6-2.2c-2.4-0.5-4.6-0.5-6.3-0.4
			l-5.1,40.8c-0.3,2.5-2.6,4.2-5.1,4c-2.5-0.3-4.3-2.6-4-5.1l5.5-44.2c0.2-1.8,1.5-3.3,3.3-3.8c0.6-0.2,6.5-1.6,13.5-0.2
			c7.9,1.7,12.1,5.5,12.5,5.9c1.2,1.2,1.7,2.9,1.2,4.6l-15.2,51.8C235.7,228.8,233.9,230,231.9,230z"/>
	</g>
	<g>
		<g>
			<path d="M402.2,416.8c-4.1,0-8.2-1.1-11.9-3.1C189.8,301.1,109.5,176.3,89.7,140.8c-0.5-0.9-0.8-1.4-1-1.7
				c-3.2-5-4-10.7-2.4-16.4c2.8-9.8,12.4-18.2,20.6-22.1c19.2-9.1,35.1-6.5,43.3,7.3c0.1,0.1,0.2,0.4,0.5,1
				c12.6,25.3,84.7,156.9,263.5,262.7c11.7,6.9,15.7,21.4,9.2,33C419.1,412,411,416.8,402.2,416.8z M127.9,104.2
				c-4.9,0-10.8,1.6-17.1,4.6c-6.4,3-13.8,9.6-15.7,16.4c-0.9,3.2-0.5,6.2,1.3,9c0.2,0.3,0.6,1.1,1.3,2.2
				c19.5,35,98.7,158,297.2,269.4c2.3,1.3,4.8,1.9,7.4,1.9c5.5,0,10.5-3,13.2-7.7c4.1-7.2,1.5-16.3-5.9-20.7
				c-181-107.1-254.2-240.7-267-266.4l-0.3-0.5C139.1,106.9,134.3,104.2,127.9,104.2z"/>
		</g>
	</g>
	<g>
		<path d="M151,199.8c-1.2,0-2.4-0.5-3.3-1.4c-13.4-14.2-28-41.8-28.6-43c-1.2-2.2-0.3-5,1.9-6.2c2.2-1.2,5-0.3,6.2,1.9
			c0.1,0.3,14.6,27.7,27.2,41c1.7,1.8,1.6,4.7-0.2,6.4C153.2,199.3,152.1,199.8,151,199.8z"/>
	</g>
	<g>
		<path d="M196.3,223.4c-1.2,0-2.3-0.4-3.2-1.3c-10.4-10.4-30.7-37.5-31.6-38.6c-1.5-2-1.1-4.9,0.9-6.4c2-1.5,4.9-1.1,6.4,0.9
			c0.2,0.3,20.8,27.7,30.7,37.7c1.8,1.8,1.8,4.7,0,6.4C198.7,222.9,197.5,223.4,196.3,223.4z"/>
	</g>
	<g>
		<path d="M230,282c-1.1,0-2.2-0.4-3-1.2c-10.2-9.1-20.1-20.7-20.5-21.2c-1.6-1.9-1.4-4.8,0.5-6.4c1.9-1.6,4.8-1.4,6.4,0.5
			c0.1,0.1,10,11.7,19.7,20.3c1.9,1.7,2,4.6,0.4,6.4C232.5,281.5,231.2,282,230,282z"/>
	</g>
	<g>
		<path d="M280,305.4c-1,0-1.9-0.3-2.8-0.9c-8.7-6.7-19.3-16.9-19.7-17.3c-1.8-1.8-1.8-4.6-0.1-6.4c1.8-1.8,4.6-1.8,6.4-0.1
			c0.1,0.1,10.6,10.3,18.9,16.6c2,1.5,2.4,4.4,0.9,6.4C282.7,304.8,281.4,305.4,280,305.4z"/>
	</g>
	<g>
		<path d="M317.7,353c-0.9,0-1.8-0.3-2.6-0.8c-9.2-6.2-19.2-15.2-19.6-15.5c-1.9-1.7-2-4.6-0.4-6.4c1.7-1.9,4.6-2,6.4-0.4
			c0.1,0.1,10,8.9,18.6,14.8c2.1,1.4,2.6,4.2,1.2,6.3C320.6,352.3,319.2,353,317.7,353z"/>
	</g>
	<g>
		<path d="M369,371.8c-0.8,0-1.6-0.2-2.3-0.7c-8.3-5-16.6-11.5-16.9-11.8c-2-1.6-2.3-4.4-0.8-6.4c1.6-2,4.4-2.3,6.4-0.8
			c0.1,0.1,8.2,6.5,16,11.2c2.2,1.3,2.9,4.1,1.5,6.3C372.1,371,370.6,371.8,369,371.8z"/>
	</g>
	<g>
		<path d="M104.8,142.6c-3.9,0-8.1-0.4-12.6-1.3c-2.5-0.5-4.1-2.9-3.6-5.4c0.5-2.5,2.9-4.1,5.4-3.6c36.5,7.4,45.2-23.7,45.5-25.1
			c0.6-2.4,3.1-3.9,5.6-3.2c2.4,0.6,3.9,3.1,3.3,5.5C148.2,109.9,139.3,142.6,104.8,142.6z"/>
	</g>
</g>
</svg>
